<?xml version="1.0" encoding="UTF-8"?>
<svg id="_Слой_1" data-name="Слой 1" xmlns="http://www.w3.org/2000/svg" viewBox="0 0 720.05 744.84">
  <defs>
    <style>
      .cls-1 {
        font-family: Uniman-Medium, 'Uniman Medium';
        font-size: 46.74px;
        font-weight: 500;
      }

      .cls-1, .cls-2, .cls-3, .cls-4 {
        fill: #fff;
      }

      .cls-5, .cls-6, .cls-2, .cls-3, .cls-7 {
        stroke-width: 0px;
      }

      .cls-5, .cls-3, .cls-7 {
        fill-rule: evenodd;
      }

      .cls-8 {
        letter-spacing: -.03em;
      }

      .cls-7 {
        fill: #000002;
      }

      .cls-9 {
        letter-spacing: -.01em;
      }

      .cls-10 {
        letter-spacing: -.04em;
      }

      .cls-4 {
        font-family: Uniman-DemiBold, 'Uniman DemiBold';
        font-size: 110.36px;
        font-weight: 300;
      }

      .cls-11 {
        letter-spacing: 0em;
      }
    </style>
  </defs>
  <g>
    <path class="cls-5" d="m395.68,469.04c-.84,1.39-2.22,1.3-3.57,1.3q-6.79,1.04-10.72-3.23c2.64-3.16-2.29-3.08-2.21-5.12,5.08-5.12,4.93-12.7,8.7-18.46,1.14-1.75,1.65-3.95,3.71-5.03,3.32-.15,4.36-2.38,4.73-5.21,5.8-6.83,7.62-14.87,7.2-23.59-.03-.57-.13-1.21.07-1.72,2.35-6.05.21-9.63-5.81-11.73-2.44-.85-4.69-2.74-4.77-5.92,5.99-6,15.01-4.9,18.88,2.32,1.67,3.12,3.64,5.73,7.68,3.58,1.63-.87,3.95-1.46,4.11-3.66.17-2.24-2.31-2.21-3.67-3.11-.64-.42-1.52-.66-1.9-1.29-3.69-6.09-8.92-8.6-16.05-7.48-1.82.29-3.6-1.25-3.56-3.12.16-7.06-2.48-14.04-.55-21.14.42-1.54.91-2.95,2.42-3.74,6.72,1.21,12.19,5.38,18.18,8.19,14.32,6.72,28.53,13.67,43.18,19.7,4.46,1.84,8.47,4.59,12.67,6.94,7.76,4.35,16.02,6.1,25.62,2.3-3.64-2.65-7.32-2.86-10.74-3.66-4.89-1.13-9.86-1.98-14.29-4.53-1.67-.96-3.68-2.12-3-4.39.76-2.5,3.14-1.93,4.93-1.43,6.68,1.86,13.05-.63,19.38-1.67,6.88-1.13,9.59-10.6,5.75-17.63-1.66-3.04-4.02-5.69-5.26-8.97-1.18-3.12-1.87-6.06,3.29-5.06,1.88.37,3.08-.45,3.54-2.12,2.3-8.32,5.73-16.51,3.34-25.45-.43-1.62-.3-3.83-2.55-4.03-2.33-.21-3.25,1.74-3.95,3.59-.89,2.35-1.13,4.9-2.3,7.15-.74,1.41-1.74,2.93-3.44,2.6-1.44-.28-1.6-2-1.8-3.35-.17-1.15-.18-2.31-.26-3.46-.31-4.78-1.27-9.14-6.73-10.67,1.98-4.54,6.56-1.44,9.47-3.24,5.52-3.08,12.39-4.43,14.72-11.58.49-1.36.23-3.39,2.36-3.38,1.08,0,1.31,1.26,1.38,2.21.89,11.49,4.85,22.53,4.26,34.3-.8,15.82-2.35,31.46-6.5,46.78-1.85,5.7-4.99,10.95-4.53,17.44.25,3.52-1.39,7.12-4.23,9.76-6.51,5.37-14.6,5.49-22.36,6.48-4.19.53-8.43.89-12.65,1.28-9.18.86-17.95-.37-26.42-4.49-8.43-4.1-8.81-3.73-14.07,3.74-2,2.84-3.91,5.73-5.62,8.76-2.94,5.23-4.55,10.62-2.44,16.58.13.36.14.76.23,1.13,1.91,8.01-.65,17.67,8.21,21.77-.06-.25-.05-2.09-1.65-2.77-4.86-2.06-5.07-6.15-5.14-10.55-.04-2.87.28-5.89-.78-8.61-3.32-8.57.3-15.38,5.24-21.9,1.86-2.46,4.02-4.7,6.15-6.91,3.54-3.66,7.21-2.94,10.53,1.85-3.88,2.06-5.95,6.66-8.72,8.64-6.48,4.62-5.44,11.11-7.52,16.8-2,5.48,1.6,8.38,5.68,10.15,2.91,1.27,3.74,2.86,3.62,5.65-.11,2.5.23,4.92.84,7.4,1.61,6.53-3.91,10.06-7.26,13.9-2.78,3.17-5.95,6.38-10.3,8.47-7.21,3.47-9.92,2.74-11.39-5.32-.27-1.5-.54-3-.82-4.5,1.7-1.25,3.62-.92,4.74.39,3.47,4.04,6.72,1.28,9.76-.24,3.17-1.58,2.55-4.91,2.36-7.75-.2-2.97-.79-3.98-4.23-1.96-6.66,3.91-14.03,6.05-21.98,4.67-2.67-4.28-1.48-8.38,3.25-10.54,2.81-1.28,5.85-1.93,8.98-1.83,2.12.07,4.03-.43,4.32-2.82.37-3.08.35-6.43-2.24-8.54-1.93-1.57-4.08-.17-5.61,1.43-1.76,1.83-3.75,3.29-5.95,4.51-1.2.67-2.62,1.65-2.55,2.95.29,5.7-3.44,10.08-4.66,15.25.34,2.65,1.81,4.76,3.24,6.9Z"/>
    <path class="cls-3" d="m327.89,146.23s.1-.07.15-.11c-.68.25-1.36.43-2.06.56.64-.07,1.28-.2,1.9-.45Z"/>
    <path class="cls-3" d="m332.05,143.79c-.38.32-.78.63-1.19.91.48-.25.9-.54,1.19-.91Z"/>
    <path class="cls-3" d="m303.37,172.65c-.99,0-2-.24-3-.69.81.62,1.83.87,3,.69Z"/>
    <path class="cls-3" d="m372.55,128.28c-5.86-.46-4.82,5.88-7.99,7.51-.06-3.71,1.48-7.06,5.25-9.39,1.62-.99,3.25-2.39,1.25-4.56-3.64-1.56-6.23.04-8.59,2.69-3.21,3.6-4.83,7.86-5.35,12.59.28-2.76-.46-5.35-1.19-7.91-.46-1.63-.98-3.61-3.11-3.64-1.87-.02-2.16,1.88-2.87,3.2-1.99,3.72-3.7,7.68-7.37,10.23-1-1.17-.9-2.17-1.07-3.09-.3-1.62,0-4.04-2.21-4.07-2.38-.03-2.61,2.35-2.94,4.26-.32,1.83.36,3.91-1.25,5.45-.47.24-.94.5-1.38.8-.56.47-1.1.97-1.66,1.44-.29.37-.71.66-1.19.91-.53.36-1.07.7-1.69.94-.37.18-.75.34-1.13.47-.05.04-.1.07-.15.11-.62.26-1.26.38-1.9.45-3.09.6-6.31.31-9.38,1.06,1.82-.64,3.73-.59,5.6-.84,1.25-.17,2.52-.08,3.78-.22.69-.13,1.38-.32,2.06-.56.78-.57,1.9-.93,2.82-1.42.41-.29.81-.59,1.19-.91.43-.55.58-1.28.2-2.36-1.42-3.99,2.52,1.06,1.69-1.18,3.15-6.17,2.56-6.96-6.42-8.62-4.49,1.45-10.37.62-11.59,7.35-.26,1.43-1.47.69-2.29.37-1.29-.5-2.56-.53-3.94-.34-6.02.81-11.91,2.13-18.19.69-3.43-.79-7.57.27-9.12,4.71l.45-.03.39.23c1.24,1.06,2.73,1.28,4.29,1.42,7.47.67,10.32,3.63,10.82,11.11h0c.21,1.59.09,3.2-.03,4.81,0,1.67,0,3.35.05,5.02.08,2.38.82,4.1,2.02,5.01.99.45,2,.7,3,.69.93-.14,1.95-.53,3.04-1.22.32-.2.65-.38.98-.57,1.15-.96,2.54-1.46,3.88-2.05.71-.37,1.42-.74,2.11-1.14-.65.47-1.37.82-2.11,1.14-1.3.67-2.61,1.32-3.88,2.05-.1.08-.21.16-.3.25-1.14,1.08-2.42,1.53-3.72,1.54-1.17.17-2.19-.08-3-.69-.09-.04-.18-.07-.27-.11-2.41-1.18-1.55-3.64-1.81-5.67-.18-1.39-.1-2.82,0-4.24,0-1.6.03-3.19.03-4.79-.18-1.29-.58-2.56-1.43-3.78-4.35-.92-8.45,1.71-12.99.54-5.85-1.51-6.38-.65-5.19,5.65,1.49,3.96,2.98,7.91,4.46,11.87,2.33,5.32,6.64,8.65,11.53,11.38,6.49,4.55,10.08,11.61,15.07,17.45.51.59.88,1.35,1.75,1.53,1.45.06,3.01-.26,4.02,1.26,1.89,2.85,4.81,3.19,7.86,3.16,7-.41,12.12-4.61,17.01-8.9,13.22-11.58,24.15-24.41,22-43.77-.11-.94-.33-2.04.21-2.82.53-.75,1.34.05,2.01.19,5.01-.48,5.9-4.07,6.11-8.16-.19-1.04-1.31-.51-1.79-1.06,3.08-1.5,2.6-5.74,5.61-7.29,2.52-3.11,1.28-4.97-2.04-6.13Z"/>
    <path class="cls-3" d="m307.39,170.86c1.27-.73,2.58-1.38,3.88-2.05-1.34.59-2.74,1.09-3.88,2.05Z"/>
    <path class="cls-3" d="m298.32,157.14c0,1.6-.02,3.2-.03,4.79.11-1.61.24-3.22.03-4.79Z"/>
    <path class="cls-5" d="m257.74,120.11c-1.69,2.2,1.43,3.88,2.6,5.72.5.79.71,1.76,1.07,2.64,1.87,4.47,3.01,6.36,5.53,6.95-1.51-6.05-2.39-12.41-2.54-18.74-2.68.09-5.17,1.49-6.67,3.43Z"/>
    <path class="cls-5" d="m368.78,103.83c-.6-1.94-1.45-3.79-2.72-5.52,1.2,1.74,2.08,3.59,2.72,5.52Z"/>
    <path class="cls-5" d="m435,194.38c-1.13-2.86-2.17-5.29-6.18-4.26-1.39.36-2.89-1.5-3.35-2.83-2.17-6.23-7.42-6.5-12.63-6.82-2.49-.15-5.31.46-6.86-2.04-4.22-6.79-13.05-8.4-16.95-15.9-1.92-3.71-5-6.26-5.3-11.29-.31-5.2.65-10.43.01-15.31-1.66-12.77-3.16-25.88-11.57-36.64-1.04-1.33-.72-2.94-.81-4.46-.18-3.06-.45-6.12-.55-9.19-.06-1.94-.77-3.35-2.6-4.07-2.49-.98-5.05-1.05-7.35-.43,1.7,2.03,3.29,4.21,4.71,6.54-1.42-2.34-3-4.51-4.71-6.54-4.59,1.22-8.12,5.21-7.82,10.45.26,4.59-1.42,6.44-5.3,8.14-3.71,1.62-6.01,4.65-2.99,8.97,2.81,1.38,4.27-.87,5.91-2.33,2.3-2.05,4.46-4.27,6.34-6.73,1.85-2.41,3.3-5.09,4.93-7.65-3.78,8.86-10.51,14.9-18.29,20.28-15.63,10.82-33.47,14.56-51.76,16.64-12.6,1.44-13.76.87-23.54-3.26,1.45.5,2.86,1.15,4.39,1.43,1.53.27,3.07.39,4.61.34,21.02-.7,41.31-4.74,60.59-13.35,1.86-.83,4.09-1.47,4.57-3.98-5.21-2.46-10.67-2.17-15.83-.46-3.4,1.13-7.48,2.18-7.86,7.26-.18,2.41-2.65,1.54-4.27,1.59-16.23.53-32.44.97-48.57-1.73-.53-.09-1.05-.1-1.57-.09.14,6.33,1.03,12.69,2.54,18.74,1.53.36,3.57.24,6.59-.07,3.48-.36,7.41-.6,6.33,5.13-.36,1.91.44,3.4,2.51,3.92,2.36-2.72,5.8-2.94,8.89-3.13,2.56-.15,5.2,1.04,7.8,1.64,1.06.25,2.71.94,2.69-.72-.05-4.49,1.87-1.68,3.22-1.03.8.38,2.23,1.22,2.25,1.18,3.85-6.47,6.82.11,10.87,1.07-2.95-8.24,3.02-8.88,8.01-10.37.36-.11.76-.1,1.14-.15,2.1.03,2.88-3.57,5.24-2.22,2.76,1.58,2.37,4.53,2.39,7.24.02,1.8-1.44,3.82.65,5.38,2.83-.14,1.79-2.44,2.14-3.92.55-2.27-.25-4.91,1.68-7.09,1.87,3.39.2,7.03,1.9,10.96,5.6-5.1,9.28-10.62,11.47-17.72,3.46,4.78,2.56,9.98,3.85,15.85,1.48-4.31,2.2-7.74,3.77-10.72,2.24-4.27,4.11-9.54,10.8-8.07.55.42,1.08.38,1.57-.11.13-.53.03-.92-.17-1.25-.26-.28-.53-.55-.8-.82-.28-.23-.57-.47-.77-.75,0-.05-.01-.09-.02-.14-.24-.43-.5-.87-.5-1.33,0-1.18,0-2.36-.04-3.53-.32-3.71-.58-7.4-1.65-10.83-.64-1.93-1.52-3.78-2.72-5.52,1.27,1.73,2.12,3.58,2.72,5.52,1.14,3.42,1.53,7.09,1.65,10.83.14,1.62.3,3.25.54,4.85.05.09.1.18.15.27.22.2.43.41.64.62.31.25.6.5.8.82,4.8,5.11,6.59,11.06,4.1,18.25-.88,2.54-1.4,5.24-2.6,7.63-2.12,4.22-1.37,7.99.59,12.08,5.37,11.13,12.78,20.04,24.77,24.37,1.69,1.02,3.39,2,5.25,2.7,5.84,1.17,11.33,3.08,15.6,7.49,1.03.89,1.98,1.87,3.02,2.75,2.86,1.03,4.27,5.58,8.43,3.45.64-2.11,4.61-2.19,3.28-5.57Z"/>
    <path class="cls-5" d="m370.46,118.19c0,.46.26.9.5,1.33-.24-1.61-.4-3.23-.54-4.85.03,1.17.05,2.35.04,3.53Z"/>
    <path class="cls-5" d="m371.75,120.41c.28.27.54.54.8.82-.2-.31-.5-.57-.8-.82Z"/>
    <path class="cls-3" d="m384.09,466.86c-.31,3.85-3.36,2.48-5.28,2.49-16.01.03-32.01-.11-48.02-.2-6.69-.54-13.38-1.02-20.06-1.64-6.65-.61-13.3-1.34-19.58-5.77v15.16c-1.37-.23-2.48-.4-3.59-.6-2.14-.38-5,.35-5.46-2.92-.43-3.13,1.73-3.82,4.27-4.04,2.22-.19,1.36-1.95,1.33-3.1-.07-3.85-2.36-6.79-4.26-9.88-.62-4.79,4.3-11.07,8.75-11.16,2.3-.04,3.39,1.07,2.35,3.23-1.71,3.56.4,5.36,2.89,7.09,5.89,4.1,12.82,4.99,19.61,6.26,1.88.35,3.84.2,5.71.77,17.2,2.26,34.42.24,51.62.43,3.6.04,7.76-.6,9.71,3.88Z"/>
    <path class="cls-3" d="m263.66,122.4c.39.56.81,1.08,1.24,1.57-.04-.34-.08-.68-.11-1.03-.38-.18-.75-.35-1.12-.55Z"/>
    <path class="cls-3" d="m362.76,87.13c-4.43,8.5-8.89,17.02-18,21.57-.75.47-1.5.93-2.25,1.4-12.99,7.53-27.33,11.01-41.92,13.34-11.88,1.9-23.96,5.28-35.79-.5.03.34.08.68.11,1.03,4.79,5.58,11.52,7.37,18.29,7.02,22.09-1.16,43.56-5.13,62.32-18.07,8.23-5.68,15.4-12.23,18.38-22.25.38-1.29.92-2.62-1.14-3.54Z"/>
    <path class="cls-3" d="m442.11,405.4c-4.69-3.32-8.77-3.85-12.16,1.95-1.64,2.8-4.15,5.07-5.98,7.78-3.24,4.75-5.28,9.6-2.59,15.63,1.28,2.85,1.24,6.42,1.27,9.67.04,4.15-.75,7.75,4.79,9.94,4.19,1.66,1.93,5.73-.78,10.38.28-5.69-.96-9.11-5.22-10.19-2.34-.59-1.77-2.33-1.78-3.64-.04-4.64-.38-9.27-1.69-13.7-2.74-9.22-.03-17.03,5.54-24.3,2.89-3.78,4.92-9.64,8.63-10.95,3.35-1.19,8.61,2.16,12.73,4.13,12.53,5.99,25.39,2.1,38.12,1.59,6.77-.27,13.38-1.53,19.2-5.4,1.26-.26,1.76.24,1.5,1.5-5.9,5.77-13.84,6.55-21.23,7.59-13.46,1.91-27.13,3.37-40.34-1.98Z"/>
    <path class="cls-3" d="m249.92,400.92c-7.97,1.46-15.39,4.62-22.97,7.33-8.68,3.11-13.72,1.06-18.27-7.05-2.65-4.72-5.45-9.21-9.1-13.29-4.58-5.13-5.21-11.5-3.52-18.02,2.21-8.5,6.16-16.33,11.28-23.31,2.67-3.64,3.31-5.84,3.74-11.29.16-2.07.73-5.04.92-6.85,1.52-6.81,2.83-10.51,5.1-15.81,4.27-7.36,9.75-13.84,15.05-20.43,3.78-4.69,5.94-10.16,8.54-15.44.63-.3,1.11-.13,1.42.49.96,3.42-1.1,6.25-1.79,9.35-1.06,3-3.38,5.08-5.29,7.5-8.79,11.1-16.7,22.85-19.03,37.08-.02,8.07-2.26,14.7-7.84,21.3-5.46,6.46-8.18,15.12-8.16,24.2.01,4.31,1.01,8.07,3.8,11.16,3.4,3.76,5.89,8.06,8.34,12.43,2.71,5.8,7.71,5.22,12.67,4.38,2.61-.44,4.98-1.74,7.43-2.77,5.21-1.52,10.25-3.97,15.93-3.05.89.44,1.5,1.12,1.74,2.09Z"/>
    <path class="cls-3" d="m396.94,461.22c6.37.24,12.23-2.57,18.49-3.1,1.71-.15,3.04-1.57,3.59-3.39.37-1.23,1.07-2.1,2.45-1.9,1.52.23,2.17,1.38,2.64,2.73,2.84,8.14-2.41,15.58-11.15,15.77-.67.02-1.71.34-1.59-.9.4-4.18-3.28-2.75-5.14-3.81-3.81-.45-6.98,1.89-10.56,2.42-4-.55-4.25-3.51-4.25-6.63,1.49-2.02,3.53-1.5,5.52-1.19Z"/>
    <path class="cls-3" d="m510.38,372.67c6.41-27.73,9.29-55.56,1.46-83.08-2.69,2.54-1.35,6.76-2.4,6.13-2.88-.7.01-2.69-.56-3.87-.22-1.63.3-3.12.92-4.58.89-1.35.33-2.85.41-4.29.41-.74.92-1.24,1.83-.79,1.71.45,3.51.89,3.42,3.18-.52,13.5,4.9,26.3,4.17,39.96-.9,16.98-2.31,33.74-8.1,49.87-2.2-.02-1.48-1.36-1.15-2.53Z"/>
    <path class="cls-5" d="m321.49,460.53c-4.15-1.24-5.26-4.13-4.56-8.07.3-1.71.65-3.43,1.32-5.03.88-2.12.89-4.08.41-5.96-1.21-.2-2.24-1.1-2.64-2.34-.38-1.18-.34-2.28,0-3.26-.49-.78-1.09-1.51-2.16-1.31-.01,0-.02,0-.03,0,0,.01,0,.03.01.04.12.88.13,1.37,0,2.25-.16,1.06-1.03,1.82-2.03,2.16-.72,4.16-1.26,8.34-1.14,12.6.11,4.05-1.98,5-5.6,3.89-5.63-1.72-7.39-4.42-7.17-11.35-1.61-4.15-3.71.36-5.51-.31-3.7.73-6.19,3.43-9.02,5.57-1.98,2.33-2.09,4.64.08,6.92.98-5.46,5.8-9.87,10.76-9.85-3.78,5.54-3.46,7.11,2.69,10.54,7.5,4.18,15.65,6.16,24.22,6.5,1.47.31,3.03,1.1,4.12-.75-.59-1.84-2.32-1.85-3.73-2.27Z"/>
    <path class="cls-3" d="m240.89,276.69l-.19.07c-4.69-30.08,19.5-54.41,42.67-60.68,4.69-1.27,7.12-1.35,8.76-5.71,1.19-2.5,3.09-3.32,3.86-4.42,1.14-.32.38-.78.64.13-.57,3.77-1.97,7.24-3.77,10.58-1.36,1.16-3.04,1.69-4.74,1.96-17.56,2.76-28.99,13.77-38.04,28.06-1.6,2.53-2.41,5.19-1.88,8.19-1.32,4.87-1.61,9.83-1.66,14.85-.02,2.23,3.8,8.29.17,8.93-1.49-3.37.62,3.91-2.85.94.74,4.28-1.57,1.59-2.98-2.9Z"/>
    <path class="cls-3" d="m446.85,205.87c21.54.3,37.61,10.24,49.25,27.96,4.31,6.56,9.05,12.89,11.02,20.69.66,1.2.64,2.2-.83,2.76-2.51-.59-2.87-2.9-3.69-4.75-4.65-10.51-11.8-19.21-19.68-27.39-8.06-10.45-19.71-13.47-31.89-15.41-1.99-.56-4.07-.91-5.62-2.49-.09-1.04.11-1.79,1.43-1.37Z"/>
    <path class="cls-3" d="m288.09,362.11c-.85.82-1.7,1.64-2.55,2.46-3.62,9.52-7.95,18.66-15.18,26.04-5.61,5.72-12.08,9.92-20.43,10.31-.49-.38-.97-.77-1.45-1.15.81-1.77,2.5-2.4,4.14-2.81,10.16-2.51,16.1-9.79,20.93-18.34,2.64-4.67,5.35-9.29,7.76-14.08.95-1.9,2.22-3.69,4.25-4.52,1.8-.73,3.08-.28,2.56,2.09Z"/>
    <path class="cls-3" d="m283.25,145.66c-.23.2-.5.27-.8.22-3.22,8.32-2.21,9.75,6.45,8.9,1.52-.15,3.09-.26,4.55-.69,3.79-1.11,4.49-3.57,1.61-6.31-3.39-3.23-7.58-3.05-11.82-2.12Z"/>
    <path class="cls-5" d="m295.99,205.95c-.39-.39-.78-.78-1.17-1.17,2.23-3.17,5.74-3.01,9.03-3.61,1.97-.36,4.16.64,5.94-.91.54.31,1.08.63,1.62.94,6.12,1.7,6.86,6.3,6.25,11.62-.37,1.07-.92,2.01-1.9,2.64-1.82.06-2.07-1.35-2.4-2.64-.45-1.78,0-4.08-2.33-4.81-2.74-.87-3.35,1.92-4.86,3.16-1.31.69-2.63.72-3.95.04-2.03-1.86,1.29-3.1.68-4.78-1.91-1.05-3.69-.37-5.47,0-.56.07-1.04-.09-1.44-.48Z"/>
    <path class="cls-5" d="m283.21,144.6c0,.36,0,.71.03,1.06,1.9.19,3.79.52,5.69.55,3.68.05,7.11,1.69,6.9,5.18-.14,2.36-4.22,2.25-6.82,2.38q-8.52.45-6.57-7.9c-1.95,4.36-7.81,7.66-3.73,13.67.53-1.72-.84-3.66.5-5.21,6.03,2.06,11.87,1.89,17.67-.46,1.85.36-.35,3.74,2.5,3.35,1.04-2.57-.06-4.7-1.09-7.02-3.17-7.1-9.18-6.09-15.07-5.61Z"/>
    <path class="cls-3" d="m510.38,372.67c.38.84.76,1.68,1.15,2.53-1.64,4.48-3.11,8.91-2.5,13.87.55,4.54-1.65,8.1-5.34,10.72-.5-.5-1-1-1.5-1.5,2.56-3.26,4-7.07,3.91-11.09-.12-5.4,1.99-9.95,4.29-14.53Z"/>
    <path class="cls-3" d="m505.93,256.96c1.1-.47.85-1.6,1.2-2.43,3.69,7.21,4.05,14.92,3.34,22.76-.18,1.98-.46,3.74,1.56,4.92-.49.43-.97.85-1.46,1.28-2.45,1.53-4.31-.12-4.19-1.97.55-8.22-.89-16.36-.46-24.55Z"/>
    <path class="cls-5" d="m445.71,206.87c1.88.55,3.76,1.09,5.64,1.64.33.61.2,1.09-.38,1.46-11.45.53-21.63-1.77-27.96-12.6-.06-.61.1-1.16.47-1.65,3.44.06,4.72,4.33,8.25,4.23.23.42.47.84.7,1.26,3.83,3.3,9.22,2.94,13.29,5.67Z"/>
    <path class="cls-3" d="m300.85,419.35c2.36,2.72-.41,6.5,1.91,9.23,1.6,3.19-1.44,6.2-.36,9.37-.86,2.66-1.53,5.49-5.08,5.76-1.9-1.13-3.03,1.86-4.89.92-.52-.2-.92-.54-1.18-1.03,9.35-3.53,7.66-12.56,9.7-19.69.4-1.39-.05-3.03-.1-4.56Z"/>
    <path class="cls-3" d="m445.71,206.87c-4.52-1.67-10.13-.8-13.29-5.67,4.81,1.56,9.62,3.11,14.44,4.66-.38.33-.76.67-1.15,1Z"/>
    <path class="cls-3" d="m291.25,443.6c.39.34.79.69,1.18,1.03-3.71.3-5.54,4.16-9.08,4.81,1.94-2.88,4.09-5.48,7.89-5.84Z"/>
    <path class="cls-7" d="m288.09,362.11c.13-1.51-.43-2.49-1.86-1.33-1.93,1.55-3.66,3.33-4.63,5.78-3.15,7.95-7.99,14.95-12.88,21.89-4.91,6.97-12.75,8.9-20.26,11.32-5.62-.16-10.78,1.79-16.01,3.42-4.76.38-2.53-4.31-4.39-6.05,1.04-4.02,4.83-5.82,7.08-8.85,7.58-10.23,16.66-18.99,26.2-27.33,4.22-3.69,7.63-8.08,10.5-12.89,1.15-1.59,1.71-3.49,2.77-5.12,6.52-6.5,12.1-12.99,13.59-23.08.86-5.82,2.67-12.2,5.3-17.92,1.4-4.95,5.4-8.75,5.25-14.57-.1-3.71,3.92-4.55,7.34-4.65,2.7.65,4.38,2.81,5.43,4.92,4.21,8.41,10.4,14.93,17.94,20.35,1.11.8,1.9,1.96,2.32,3.26,1.05,3.21,3.03,4.27,6.22,2.93,2.11-.88,3.03-.51,4.17,2,1.63,3.58,4.74,6.37,7.76,9.11,7.3,6.63,16.65,10.67,23.09,18.26,2.67,3.15,4.88,3.15,7.78.78,3.87-3.17,7.2-6.91,11.41-9.77,3.81-2.59,7.06-6,11.79-7.03,1.45-.32,1.64-1.43,1.73-2.63.81-2.01,3.06-1.92,4.46-3.08,4.24-3.07,7.79-6.77,10.68-11.26-8.99-2.8-19.38,1.71-23.94,10.18-5.53.34-9.55-2.06-12.29-6.77.02-.58.2-1.12.53-1.6,4.87.47,7.35-3.4,10.73-5.76,8.09-5.66,20.16-10.23,31.77-12.28-5.85-5.96-9.59-12.46-7.38-20.83,3.31-5.16,4.27-5.31,6.52-.4,4.65,10.14,12.31,17.41,21.5,23.32,1.32.91,3.05,1.37,3.65,3.12.36,3.6-3.85,6.45-1.66,10.34.32,1.06.57,2.13.07,3.2-2.68,5.36-2.43,11.1-1.9,16.78.35,3.75,3.01,5.99,6.28,7.55,2.54,1.21,5.51,1.7,7.3,4.22.05,1.01-.53,1.57-1.39,1.91-13.97-1.73-27.62-5.06-41.21-8.54-9.64-2.47-20.38.83-26.33,8.58-1.85,2.4-1.1,3.64,1.26,4.92,2.21,1.2,5.5,1.1,6.03,4.56-1.09,5.7-2.92,11.18-.5,17.21,2.17,5.38,3.75,7.57,9.25,8.88,3.3.79,6.72,1.18,7.8,5.6.68,2.77,3.56,3.94,6.33,4.33,2.34.33,3.43.99,2.72,3.71-1.13,4.34-5.54,4.4-8.33,6.28-1.97,1.33-4.83-1.57-6.44-3.66-1.74-2.27-.59-6.76-4.59-7.22-4.68-.54-9.4-.01-13.69,2.34-6.55.17-12.66,2.21-18.66,4.58-3.21,1.26-5.64.17-7.47-2.42-1.53-2.17-3.39-4.15-4.46-6.64-.83-2.82.89-5.03,1.81-7.42,1.86-3.87,1.3-7-1.64-10.46-4.71-5.54-10.22-9.86-16.5-13.28-5.43-2.95-10.5-6.37-14.96-10.66-1.24-1.19-2.51-3.04-4.21-.97-7.14,8.72-17.37,13.16-26.39,19.26-.63.43-1.18.98-1.83,1.4-2.31.32-3.59,1.65-4.31,3.87-.48,1.47-.28,3.61-2.64,3.87-2.54-2.69-1.58-6.69-3.59-9.58Z"/>
    <path class="cls-3" d="m403.27,397.42c-3.96-1.53-8.02-2.85-10.3-6.87-5.31-2.36-10.13-.28-14.92,1.74-5.1,2.15-9.94,4.02-11.95-3.8-.26-1.02-1.96-1.68-2.98-2.51-5.11-7.59-13.06-11.37-20.09-15.1,4.68,1.75,9.23,5.41,14.52,7.67,2.6,1.11,5.3,2.62,7.97.04,1.99-2.87,3.19-6.31.78-9.02-5.56-6.26-11.86-11.66-19.38-15.72-6.21-3.36-12.52-6.91-16.66-13.04-1.02-1.51-1.99-2.43-3.38-.27-5.55,8.61-14.43,13.05-22.77,18.17-2.21,1.36-4.83,2.27-6.03,4.9-3.01,2.46-3.55,5.73-1.52,8.68,2.12,3.07,5.28,1.21,7.88.18,5.24-2.07,9.61-5.6,14.19-8.79,3.52-2.46,5.88-.24,8.65,1.81,3.1,2.3,1.34,4.25.31,6.41-1.45,3.06-4.17,5.6-4.81,8.47-.05.67-.08,1.31-.1,1.9-.09-.66-.04-1.29.1-1.9.17-2.29.61-4.96,2.06-7.49.9-1.58,2.5-3.31.74-5.21-1.58-1.71-3.92-2.33-5.85-1.33-7.94,4.07-16.73,7.36-18.87,17.66-.1.25-.18.5-.26.75-.06-1.34-.03-2.69.15-4.07-1.37-4.29-6.97-5.05-8.03-9.6-1.68-2.86-.91-6.87-4.24-8.94-1.57.09-2.84.53-2.93,2.42,3.48,2.04,1.52,6.7,4.1,8.93,6.43,5.55,6.46,13.34,8.32,20.7,1.61,6.39,4.06,12.35,1.79,19.09-.63,1.88-.31,4.23,1.11,6.06.76,2.24.2,4.55.39,6.82.11,1.26-.22,2.9,1.99,2.5.45-.38.8-.79,1.09-1.21-.4,3.39-1.26,6.75-2.77,10.06-.91,2.41-1.96,4.71-4.23,6.19-2.21,7.25-.87,10.17,6,13.02,6.35,2.63,9.33,1.65,9.35-3.57.74-.04,1.67-.33,2.64-.74-1.8,6.6,1.14,8.94,9.65,9.91,3.19,2.02,6.75.66,10.12,1.09q13.8,1.76,17.84-11.7c.17-.56.22-.74.4-.44-1.85,6.05-.73,11.36,3.13,11.64,7.72.56,15.58,1.61,23.27-.66,2.1-1.08,3.43-2.8,4.29-4.97,2.48-6.22,3.7-12.98,7.96-18.42,2.1-1.05,3.61-2.7,4.8-4.68,6.03-4.89,8.17-11.29,7.79-18.9-.2-3.99-.96-8.42,1.3-11.88,2.62-4,.19-4.92-2.59-5.99Z"/>
    <path class="cls-3" d="m461.77,341.86c-14.05-6.18-16.03-3.48-14.5-24.29.17-2.33-.43-4.7,2.77-5.29,7.3-8.01,25.12-8.26,36.2-5.57,6.13,1.05,7.98,1.84,7.57,7.52-.23,3.12.28,6.3.52,10.55,2.98-3.42,3.29-6.71,4.17-9.73.6-2.07,1.14-4.08,3.07-5.38,3.54-2.37,6.22-1.26,6.88,2.99,1,6.48,1.91,12.93-.89,19.3-1.07,2.44-1.39,5.2-2.13,7.79q-2,7.04-8.51,3.11c.54,3.88,2.38,6.59,4.36,9.34,3.51,4.87,5.69,10.09,3.3,16.21-1.32,3.38-3.34,6.88-6.92,7.11-7.34.46-14.46,4.56-22.04,1.5-1.02-.41-2.18-.88-3.35.18.53,3.06,3.34,3.52,5.53,4.16,6.84,1.99,13.76,3.71,20.69,5.33,2.09.49,3.66.86,3.53,3.48-.14,2.82-2.05,2.69-4.05,2.86-9.86.84-18.57-.99-27.71-5.97-18.38-10.02-37.73-18.29-56.93-26.72-4.65-2.04-8.33-5.42-12.94-7.29-2.78-1.22-5.57-2.43-8.35-3.67-2.65-1.18-3.28-2.7-1.46-5.36,5.82-8.54,18.85-13.25,28.86-10.74,13.62,3.41,27.34,6.41,41.02,9.58,10.86,1.01,19.03,7.41,26.96,13.67.88,0,.88-.18.65-.69-3.2-7.08-3.25-7.84-1.43-14.78.19-.74.19-1.53-.68-2.37-2.64.45-3.71,2.89-5.18,4.75-2.43,3.06-5.12,4.5-8.98,2.52-3.22-1.65-7.08-1.8-10.05-4.13Z"/>
    <path class="cls-3" d="m449.17,310.15c-4.26-4.47,1.73-6.88,2.1-10.42,4.26-1.35,8.83-1.24,12.98-3.48-5.34,2.57-10.8,3.35-16.35,1.31-11.15-6.31-19.3-15.19-23.6-27.54-2.37-.09-1.42,2.77-2.88,3.53-3.3-.45-4.33-2.8-4.51-5.65-.16-2.59-1.07-4.07-3.85-4.73-6.61-1.57-7.52-3.55-5.8-11.12,1.31-.75,2.59-.38,3.89.07,1.08.38,2.01,1.16,3.73,1.26.43-5.49-.04-11.02.32-16.51.17-2.67-1.47-2.12-3.04-1.51-5.75,2.23-11.62,4.1-17.46,6.08-15.26,5.15-31.52,5.29-46.96,9.56-1.92.53-3.98.18-5.38-1.35-3.62-3.95-7.63-7.67-8.84-13.25,2.25-5.7-.11-10.97-1.57-16.31-.25-.73,0,.21-.23-.53-2.37-7.89-1.95-9.53,2.73-10.73,6.45-1.66,11.56,1.04,13.15,7.07,1.74-3.74,3.17-7.52,5.43-10.87.97-1.43,2.24-3.19,4.12-2.44,1.69.68,1.06,2.71.83,4.17-1.94,12-4.56,23.8-10.76,34.74,6.84-.71,13.02-3.88,19.74-4.59,1.21-.09,2.42-.13,3.63-.1,6.85-.86,13.71-1.55,20.61-.82,2.04-.48,4.19-.62,6.06-1.73-1.74.77-3.53,1.35-5.45,1.42-.91.14-1.7-.09-2.36-.75-1.2-5.71.04-8.08,5.17-9.59,4.18-1.24,8.41-.58,12.62-.21,3.47.31,6.96-.15,10.42.07,4.84.3,7.49,4.18,4.94,7.94-6.57,9.65-3.01,17.9,2.69,26.03,3.93,5.61,6.28,12.19,11.32,17.17,3.32,3.29,7,6.31,9.43,10.59,1.22,2.14,4.37,1.92,6.97,1.74,5.13-.35,10.21-1.17,15.44-.17,3.24.62,7.03-.26,8.5-3.52,1.51-3.36,1.37-7.27-1.38-10.35-2.75-3.09-5.04-6.42-5.71-10.55-.5-3.08-.46-6.22,2.33-8.49,1.65-.14,2.38,1.04,3.05,2.21,6.03,10.6,7.79,22.04,6.5,34.03-.33,3.08-.48,3.07-4.31,3.82,1.96.8,4.1.25,6.09.79,6.05,1.62,11.41.35,16.17-3.72,1.31-1.12,2.77-2.1,4.5-2.51,1.95-.28,3.53.69,5.14,1.56.77.77.69,1.35.69,3.41-1.09,5.96-7.15,7.55-13.4,9.45-6.49.37-12.9,1.34-19.48.14-7.44-1.37-14.5.44-21.19,4-2.01,1.07-4.04,3.43-6.79,1.38Z"/>
    <path class="cls-3" d="m468.93,397.98c-8.23.44-15.97-.19-23-5.36-4.73-3.47-10.45-5.39-16.07-7.53-11.01-4.19-19.87-11.98-28.62-20.93,3.98-1.41,6.88-.7,9.62.56,20.3,9.34,39.57,20.5,58.07,33.26Z"/>
    <path class="cls-7" d="m396.94,461.22c-1.73.92-3.54,1.42-5.52,1.19-1.82-1.61.17-2.66.55-3.97.99-3.45,3.9-6.05,2.98-10.46-.87-4.15,12.85-14.04,16.64-12.13,4.48,2.25,3.69,7.21,3.53,11.18-.12,3.06-1.92,4.56-5.98,3.9-8.59-1.42-13.71,3.37-12.19,10.3Z"/>
    <path class="cls-5" d="m324.96,462.34c6.12.21,12.26.32,18.37.66,3.16.18,4.91-1.03,5.93-4.03,1.59-4.68,3.48-9.26,5.53-14.64,2.02,2.75,1.41,4.34.18,6.52-3.94,6.94-.95,11.76,6.89,11.64,5.95-.09,11.9-.15,17.85-.23,2.17.85,5.04,1.04,4.37,4.59-1.91-2.53-4.67-2.19-7.35-2.22-15.33-.15-30.66,1.71-45.98.07-3.22-.34-6.43-.78-9.65-1.16,1.28-.43,2.84.04,3.86-1.21Z"/>
    <path class="cls-5" d="m449.17,310.15c2.83.23,5.28-1.02,7.45-2.47,5.75-3.84,12.08-5.07,18.71-4.12,7.09,1.01,14.26,2.08,21.29,1.08-3.06,2.69-7.3-.49-10.39,2.08-.19.03.05-.05-.12-.09-12.63-3.04-24.83-.24-36.08,5.66-.29-.71-.57-1.42-.86-2.13Z"/>
    <path class="cls-7" d="m415.43,409.25c0,2.47.1,4.96-3.08,5.29-2.43.25-2.6-1.5-2.73-3.36-.2-3.04,1.36-4.89,4.11-5.18,2.47-.26,1.34,2.12,1.7,3.26Z"/>
    <path class="cls-5" d="m391.97,438.88c.68-2.51,2.5-3.84,4.8-4.68.21,3.42.46,6.88-4.8,4.68Z"/>
    <path class="cls-5" d="m417.08,231.98c-6.22,2.23-12.19,4.33-18.14,6.5-14.4,5.26-29.62,6.49-44.57,9-3.54.6-7,4.6-10.59,1.55-2.87-2.44-4.88-5.92-7.16-9.02-.9-1.23-1.51-2.68-2.24-4.03-.39-5.38-2.98-10.59-1.23-16.13-2.58-10.17-4.83-10.38,8.26-9.59,3.71.22,4.52,1.91,4.51,5.09,0,1.7-1.01,3.66.92,5.86,3.41-6.48,4.82-13.44,10.45-19.34-2.34,15.99-5.92,30.39-14.48,44.28,8.26-4.86,16.31-5.77,24.04-7.71-5.66-6.76-4.74-13.98-2.78-22.03,3.85-15.83,6.66-31.91,7.77-48.22-.16-3.22-.31-6.44,1.48-9.34.52-2.52-.82-4.45-2-6.44-1.22-1.52-2.34-3.13-4.64-1.45-.95.69-1.76.14-2.11-.96-1.17-1.08-1-3.23-2.96-3.89-1.14,1.94-.65,3.95-.39,5.71,2.15,14.42-3.55,26.01-13.13,36.01-7.13,7.44-14.14,15.32-25.2,17.06-1.39,1.32-3.97-.66-5.15,2.09,2.22,2.48,4.12,5.28,5.3,8.6,3.33,9.39,5.32,19.28,10.45,28,.98,1.67,1.39,3.31-1.25,3.9-.79.16-1.56.39-2.27.82-.44.36-.63.82-.54,1.39,1.06,1.97,3.94,1.15,4.94,3.22,1.62,2.96,1.05,5.6-.29,8.71-1.98,4.62-5.38,7.78-8.7,11.22-1.59,1.65-4.18,3.98-2.07,6.37,1.85,2.09,4.74.63,6.99-.44,2.99-1.42,5.21-3.93,7.71-6.02,3.1-2.59,5.15-1.99,6.33,1.85.96,3.12,2.38,6.13,2.43,9.47.1,7.07,4.76,11.47,9.37,15.83,1.54,1.46,3.48,1.53,5.17-.1.22-.56.29-1.13.18-1.72-6.9-9.87-7.57-21.65-10.11-32.86-.54-2.37.41-4.12,2.55-5.27,9.73-5.25,19.55-9.66,31.09-9.69,7.57-.02,14.83,1.82,22.3,2.03,3.46.55,6.15,2.87,9.58,4.49-1.57-8.52.69-16.62.16-24.79Z"/>
    <path class="cls-3" d="m322.89,204.89c-1.38.51-2.77,1.02-3.88,1.43,6.1,5.81,7.05,14.06,9.5,21.53,1.78,5.43,3.46,10.88,6.63,15.63,2.79,4.17,1.74,5.59-2.96,5.22-4.38-1.42-7.14-4.67-8.54-8.75-3-8.77-5.66-17.67-6.9-26.91.37-4.91-1.1-8.99-5.33-11.84,2.24-1.07,4.47-3.44,5.47,1.54.5,2.49,3.78,1.94,6.02,2.14Z"/>
    <path class="cls-3" d="m372.82,158.09c-.93-1.82-1.87-3.64-2.8-5.46-.37-5.48,3.22-9.7,4.75-14.58.69-2.21,2.41-4.1,1.76-6.3,0,1.57.4,3.84-1.89,4.94-1.58-.52-1.79-1.43-.78-2.7,1.85-2.21.62-3.53-1.34-4.64-.43-2.31.95-4.58.12-6.89-.54-.75-1.08-1.5-1.63-2.24.16-.14.31-.28.47-.42,5.39,2.78,8.56,8.47,7.61,14.69-.64,4.16-1.25,8.62-3.22,12.21-2.66,4.84-1.33,8.69.71,12.96,5.2,10.88,13.08,18.84,24.45,23.17-2.77,2.19-5.19.3-7.7-.62-10.44-4.97-16.87-13.36-20.52-24.11Z"/>
    <path class="cls-5" d="m296.88,153.88c1.84.37,1.13,2.63,2.5,3.35-.02,3.67.03,7.34-.1,11-.1,2.63,1.6,3.89,3.57,3.34,3.97-1.11,7.28-3.71,10.39-6.35.7-.59-.05-3.23,2.12-1.53,1.19.94,2.12,3.02.39,3.97-4.46,2.44-8.59,5.99-14.05,5.89-3.6-.06-4.88-2.35-4.78-5.84.14-4.6.94-9.22-.03-13.82Z"/>
    <path class="cls-5" d="m372.65,122.45c-.5.04-.99.09-1.49.13.2,1.16.23,1.98-1.2,2.69-6.72,3.34-7.93,6.93-4.46,14.28-1.93-5.13,5.24-5.87,4.36-10.48.89.09,1.78.19,2.67.28,1.06-2.28,4.4-4.52.12-6.89Z"/>
    <path class="cls-5" d="m376.61,130.61c-1.15,1.77.18,4.19-1.77,5.77-1.97,1.57-3.46,3.53-4.56,5.79-1.71,2.76-.91,7.34-5.71,7.84-.63,1.61-2.03,3.62,1.66,2.15.99-.39,2.86-2.09,3.79.46,3.29-7.03,6.86-13.97,6.59-22.01Z"/>
    <path class="cls-5" d="m302.22,181.54c8.94-6.14,18.25-3.37,28.29-1.71-4.03,3.11-10.57,3.67-15.06,1.79.75-1.05,1.91-1.05,3.01-1.21-.89.04-1.8-.07-2.68.07-3.76.6-7.39,1.89-11.23,2.09-.92-.03-1.74-.28-2.33-1.02Z"/>
    <path class="cls-5" d="m328.06,145.37c-3.81.65-7.65.91-11.49.36-2.14-.31-2.95,1.2-2.98,2.66-.05,2.63,1.97.99,2.93.9,4.77-.42,9.58-.86,13.84-3.42-.67-.62-1.43-.79-2.3-.5Z"/>
    <path class="cls-5" d="m373.86,133.98c-.53-.63-1.88-.89-1.86-.55.3,5.01-4.57,7.16-7.1,12.15,2.61-1.65,3.99-2.53,5.38-3.41,3.09-.69,3.85-3.22,4.56-5.79-1.1-.48-1.05-1.44-.98-2.4Z"/>
    <path class="cls-5" d="m305.27,181.61c5.3-2.23,10.83-2.39,16.88-2.17-2.06,2.6-4.54,1.83-6.7,2.17-1.38.73-2.73,1.6-4.41.99-1.98,0-4.09.77-5.76-1Z"/>
    <path class="cls-5" d="m307.72,186.41c4.08-.29,7.33.25,10.29-1.55-3.61,6.33-3.81,6.37-10.29,1.55Z"/>
    <path class="cls-5" d="m305.27,181.61c2-.08,3.97-.02,5.77,1-2.41,1.75-5.18,2.38-8.05,2.15-.9-.07-2.53.94-2.78-.79-.17-1.18.97-1.91,2.01-2.43,1.02.02,2.04.05,3.05.07Z"/>
    <path class="cls-5" d="m326.47,138.64c5.97,1.82,6.96,4.06,1.59,6.73.77.17,1.53.33,2.3.5,1.87.02,2.43-1.78,3.66-2.64-.22-1.15-.44-2.3-.67-3.44-1.87-.63-3.39-2.87-6.89-1.14Z"/>
    <path class="cls-3" d="m371.02,120.21c-.86-.91-1.73-1.18-1.39-2.95,1.16-5.96.59-12.01-2.13-17.25-.83-1.6-1.58-2.62-1.7-4.5,5.23,7.34,6.82,15.49,5.68,24.28l-.1.36-.37.06Z"/>
    <path class="cls-5" d="m408.46,188.58c2.99-1.65,4.59,1.28,6.84,2.08,2.23.79,3.92,2.94,6.59,2.68.53.79,1.06,1.59,1.59,2.38-.04.47-.07.93-.11,1.39-6.13-.81-11.28-3.34-14.91-8.53Z"/>
    <path class="cls-5" d="m404.99,185.07c-.5,1-1.42,1.25-2.42,1.36-4.42,1.18-7.63-.94-10.55-3.87-.26-1.07.43-1.54,1.24-1.92,2.59.73,4.86,2.6,7.77,2.17,1.31.75,2.63,1.5,3.95,2.25Z"/>
    <path class="cls-5" d="m211.35,400.69c-3.44-5.18-7.42-9.99-10.95-15.08-4.39-6.33-2.64-13.53-.17-20.06,2.83-7.5,5.27-15.46,12.29-20.54,1.28-.92,1.48-2.21,1.4-3.59-1.2-19.69,9.55-34.38,20.48-48.99,1.61-2.15,3.27-4.27,4.9-6.4,1.15-3.13.99-.5,1.58-.37,2.93.74,4,2.2,1.91,4.9-1.43,1.84-3.07,3.49-4.78,5.04-9.36,8.47-14.12,19.63-18.34,31.11-.6,1.64-.87,3.36-.98,5.11-.36,5.84.11,6.23,5.88,4.61,1.31-.37,2.61-.73,3.98-.54,1.17.16,2.38.45,2.77,1.73.52,1.71-.81,2.38-2,3.05-.34.19-.69.37-1.07.44-15.96,3.12-20.54,16.28-25.06,29.09-2.12,6-1.15,12.16,3.08,17.53,2.83,3.59,6.16,7.08,5.6,12.28-.17.23-.34.46-.52.68Z"/>
    <path class="cls-5" d="m228.7,397.16c1.25,2.01,2.5,4.02,3.76,6.03-4.17,2.49-8.61,3.87-13.53,3.56-3.98-.25-6.84-1.81-7.58-6.06,0,0-.05.13-.05.13,3.72-.53,6.93,2.9,11.06.91,2.5-1.2,3.4-4.25,6.33-4.56Z"/>
    <path class="cls-5" d="m240.5,285.51c-.41,0-.82.02-1.23.03,1.26-3.24,2.02-5.39,2.42-9.26.69-3.99.62-7.45,1.08-10.73.08-.6.11-1.12.2-1.73.5-3.35.82-1.34,1-1.9.09-.27.06-.07-.33,1.96-.12.64-.12,1.02-.12,1.54,0,3.13.12,7.59.47,9.67,1.33,4.31.57,7.92-3.49,10.43Z"/>
    <path class="cls-5" d="m505.81,290.43c-9.73,9.54-20.95,9.78-32.63,4.89,1.78-1.77,5.76,1.46,6.99-1.78.91-2.4.45-5.32.6-8,.61-10.9-3.13-20.55-8.51-29.74.82-3.18,1.49-3.63,3.35-1.62,5.22,5.63,10.5,11.28,12.44,19.11.76,3.08,1.05,6.41,3.31,9.11,9.35-13.03,8.88-31.23-.83-43.74-3.14-4.05-7.18-7.57-8.43-12.88.24-.93.65-1.62,1.8-1.3,9.69,9.24,17.4,19.82,22.03,32.49,2.47,7.59,3.47,15.27,1.49,23.15-.68,2.69.88,3.4,3.16,3.37,1.24.35,1.9,1.13,1.92,2.45.02,1.49-1.24,1.06-2,1.38-1.43,1.24-2.49,3.02-4.68,3.12Z"/>
    <path class="cls-3" d="m505.81,290.43c1.27-1.48,2.15-3.2,4.66-3.3,1.41-.04,1.73-.01,1.35,1.47-3.14,4.49-5.37,3.7-6.02,1.83Z"/>
    <path class="cls-3" d="m240.53,285.99c2.21-3.13,2.64-6.85,3.49-10.43,1.54-1.82,1.09-4.05.99-6.07-.29-5.58.43-10.98,2.12-16.28-.03-4.82,3.38-7.95,5.87-11.42,6.43-9,13.95-16.92,24.57-20.99,5.02-1.92,10.19-4.14,15.74-1.56.85,1.83,1,3.82.33,5.63-3.44,9.32-3.27,19.18-4.51,28.83-.71,4.02-3.48,6.25-6.91,7.89-5.05,4.76-5.37,6.61-2.42,14.14.73,1.68,1.31,3.39,1.46,5.23.25,7.93-1.52,15.64-2.43,23.44-.3,2.54-2.27,3.91-3.86,5.55-5.45,3.57-8.4,3.21-10.96-2.47-4.52-10.05-7.47-20.55-6.33-31.79,1.65-4.91,3.72-9.59,8.14-12.83-3.89,2.53-5.88,6.32-7.37,10.46-4.56,7.42-3.88,14.92-.7,22.63,2.97,7.2.61,14.07-2.18,20.67-3.01,7.11-8.46,12.8-12.05,19.61-.7,1.33-2.22,1.39-3.48,1.8-.71.08-1.42.13-.86.17.01,0,1.29-.05,2.52-.53,5.6-1.83,9.87-6.01,15.12-8.47,2.51-.52,4.3.63,5.02,2.85,1.62,5.04,5.38,8.34,8.98,11.83,1.32,1.28,3.32,2.32,2.12,4.75-3.26,6.68-8.13,12.17-13.87,16.63-11.77,9.13-19.99,21.53-30.36,31.93-2.17,6.68-11.12,9.12-17.39,3.65-1.06-4.03-2.35-7.9-5.23-11.14-6.52-7.33-6.87-15.48-2.78-24.09,1.57-3.29,3.21-6.56,4.65-9.91,3.61-8.4,9.76-13.65,18.73-15.61,1.57-.34,3.41-.29,5.11-2.55-3.49-.56-6.36-.27-8.98,1.2-5.1,2.86-6.19.64-5.77-4.16,1.47-16.59,9.85-29.65,20.99-41.29,1.85-1.93,4.01-3.57,5.92-5.24-.27-2.53-4.12,2.02-3.42-2.04Z"/>
    <path class="cls-5" d="m287.53,254.57c1.03-9.61.51-19.42,4.17-28.68.81-2.03.48-4.52.67-6.79-.58-.99-.59-1.97.05-2.93.59-3.61,1.45-7.13,3.57-10.21.53-.13,1.06-.26,1.59-.39-1.63,8.47,1.28,17.21-2.44,25.72-2.32,5.3-.87,11.75-2.62,17.47-.7,2.29-.43,5.08-3.14,6.39-.7.09-1.32-.11-1.85-.57Z"/>
    <path class="cls-5" d="m292.42,216.16c-.02.98-.03,1.96-.05,2.93-11.29.05-21.12,3.93-28.87,12.11-5.46,5.77-10.77,13.68-17.88,26.57-.36.65-.94,2.55-1.38,3.66-.56,1.4-.71,1.87-1.11,3.08-.9-2.36,4.69-16.75,6.02-18.98,9.81-16.52,23.91-26.86,43.28-29.37Z"/>
    <path class="cls-5" d="m483.9,224.47c-.45.46-.89.93-1.34,1.39-2.46.3-3.83-1.49-5.26-2.95-5.54-5.64-12.15-9.03-19.99-10.28-2.15-.34,1.23,1.05-6.43-.89-.04-.34.42-2.91.45-3.25,12.79,1.36,24.53,4.87,32.55,15.96Z"/>
    <path class="cls-5" d="m298.06,363.61c-.39,1.06-.94,2.1-1.15,3.2-.36,1.87-.96,4.05.73,5.42,1.53,1.24,3.25.08,4.86-.58,5.39-2.19,10.2-5.27,14.63-9,4.13-3.48,12.95-.9,14.18,4.16.13.56-.69,1.3-.94,2-2.41,6.68-8.43,11.94-7.81,19.93-1.38-7.02-3.31-14.01,3.35-19.55-7.06-3.95-21.69,5.75-23.93,15.45-3.44-.26-.96-3.47-2.36-4.75-3.15-2.25-6.91-3.91-7.94-8.21.68-2.17,1.36-4.34,2.04-6.52.76-2.45,2.2-2.97,4.34-1.55Z"/>
    <path class="cls-5" d="m306.03,399.46c-1.67-2.14-2.44-5.02-4.12-7.18-2.17-2.77-1.94-5.11.07-7.64-2.13-.91-.55-3.68-2.36-4.75-1.48,9.16,2.27,17.46,4.31,26.05-.49,1.25-.12,1.85,1.18,1.78.27-.54.69-1.02,1.24-1.35.27-.17.55-.31.83-.44,1.18-1.56,1.14-3.25-.25-5.27-.32-.4-.63-.79-.91-1.19Z"/>
    <path class="cls-5" d="m304.82,408.68c.06-.37.18-.73.36-1.06-.41-.56-.83-1.12-1.24-1.68-.19.93-.28,1.88-.57,2.77-2.11,6.57,1.93,13.32-.6,19.86-.23,3-3.15,5.64-1.21,8.94.65-1.38,1.06-2.95,1.99-4.11,3.78-4.73,3.61-9.61,1.64-15.08-1.08-3.02-1.69-6.41-.37-9.65Z"/>
    <path class="cls-3" d="m289.12,254.69c1.86-5.48,2.97-11.1,3.24-16.88.17-3.66.2-7.3,2.53-10.47,1.07-1.46,1.3-3.38.78-5.03-1.88-5.92-.14-11.33,1.92-16.75,2.35-3.36,5.17.15,7.89-.9-.32,2.92-1.89,4.47-3.92,5.7,2.08,2.16,6.65.64,7.31,4.92,1.23,4,3.1,7.75,4.38,11.73,1.32,8.22,3.8,15.97,9.1,22.59.86,1.08,1.27,2.35.94,3.77-4.02,5.41-6.69,5.58-10.68.6-1.7-2.12-2.87-4.53-3.61-7.15-1.2-3.79-2.6-7.52-3.63-11.36-.51-2.93-1.4-5.77-1.69-7.4.64,2.26,1.06,5.95,2.29,9.43.61,3.56,2.47,6.73,3.23,10.25.97,2.73,2.32,5.29,3.47,7.94,2.79,6.45,2.44,7.47-3.89,10.81-.57.2-1.16.28-1.77.25-1.24-.27-2.15-.99-2.84-2.02-4.05-7.31-4.29-15.38-4.61-21.85,1.11,7.48.57,16.23-5.02,24-8.08.01-9.79-3.84-5.42-12.2Z"/>
    <path class="cls-3" d="m306.48,210.57c-.91-3.43,1.29-4.32,3.93-4.57,2.64-.25,3.76,1.34,4.04,3.82.22,1.87-.25,3.91,1.12,5.56,2.41,4.28,4.39,8.51,5.06,13.65.8,6.12,2.62,12.33,7.64,16.81.82.73,1.76,1.55,1.23,2.92l-.1-.04c-3.29,4.1-5.29,4.25-8.19.17-3.89-5.45-6.89-11.36-7.62-18.17-.26-5.73-3.55-10.49-5.07-15.82-.67-1.45-2.2-2.5-2.03-4.35Z"/>
    <path class="cls-5" d="m329.49,248.76c-6.58-6.1-10.12-13.67-10.51-22.6-.17-3.96-3.47-6.81-3.41-10.77.39-.78.78-1.56,1.17-2.34,2.71,6.76,5.09,13.57,6.22,20.85.94,6.06,4.36,10.98,9.22,14.81-.9.02-1.79.04-2.69.06Z"/>
    <path class="cls-5" d="m306.48,210.57c.8,1.14,1.6,2.28,2.39,3.42.38,1.22-.16,1.5-1.25,1.22-2.31-3.98-4.71-4.91-7.27.73-1.05-2.87-.3-4.32,1.21-5.58,1.64.07,3.28.13,4.92.2Z"/>
    <path class="cls-3" d="m451.53,209.81c4.15.64,4.68.82,6.47,1.22,10.58,1.98,17.86,7.59,24.72,14.86,3.67,4.93,7.4,9.82,10.99,14.81,6.02,8.37,7.54,17.57,4.75,27.48-1.36,4.82-2.78,9.63-4.23,14.43-.38,1.25-.55,2.87-2.22,3.06-1.92.21-1.9-1.72-2.32-2.79-1.04-2.68-2.01-5.44-2.54-8.25-1.63-8.57-8.11-14.12-12.89-20.66-1.42-1.94-1.69.68-1.84,1.87-2.66,6.95-.63,12.73,4.46,17.72,2.01,1.97,4.09,11.9,2.11,13.26-3.14,2.15-6.71,4.61-11.02,3.3-4.81-1.46-9.62-.48-14.32.15-6.02.81-9.23-.53-11.31-5.96-.27-.7-.47-2.08-.68-2.07-6.2.16-5.95-6.45-9.55-9.21-5.11-3.91-5.51-11.49-9.79-16.26-3.75-4.18-4.83-8.69-4.48-14.1.23-3.56.44-6.63,3.29-9.39,2.69-2.61,1.76-6.55-1.74-6.44-7.6.25-15.13-1.11-22.71-.43-5.46.49-7.3,3.56-6.57,8.66-.67,3.09-3.12,1.49-4.69,1.55-5.16.22-10.39-.29-15.3,1.89-1.04,0-2.07-.02-3.11-.02-5.76-3.25-7.68-9.37-5.74-16.71,4.66-17.67,7.43-35.68,9.23-53.84,1.63-2.3-1.46-6.83,2.12-7.36,2.87-.42,3.33,4.07,4.78,6.36,3.85,6.09,8.98,10.79,14.7,14.97,3.12,2.51,7.24,2.67,10.63,4.55,1.96.72,3.92,1.43,5.88,2.15,4.97,2.84,9.94,5.69,14.91,8.53.27.27.57.5.79.8,6.81,9.16,17.04,10.27,27.22,11.87Z"/>
    <path class="cls-3" d="m335.26,251.38c2.45,3.95,1.04,7.26-.07,11.59-1.89,7.33-10.46,8.56-11.67,15.72,3.47.48,6.41-.46,8.94-2.88,1.94-1.86,4.03-3.57,6-5.4,3.47-3.21,5.69-2.12,6.84,2.05,1.06,3.85,2.84,7.45,2.93,11.65.17,8.38,5.71,12.85,12.68,16.03,4.62,5,13.38,3.72,16.57,10.93.57,1.29,1.66.28,2.48.28,2.19.01,4.23.17,5.33,2.47,3.21,3.47,7.41,5.27,11.68,6.95.27,0,.54-.02.81-.03,1.64.79,4.36.62,3.34,3.78-.17.53.3.12.34.11,1.7-.59,3.33-.74,4.77.63.37,1.02,4.31,2.19.67,2.96-9.46,2.01-15.48,8.84-22.38,14.5-1.34,1.1-2.47,2.44-3.78,3.58-2.97,2.59-5.22,3.56-8.03-.91-3.11-4.94-8.15-8.08-13.79-10.09-1.34-.48-2.37-1.93-3.45-3.03-2.32-2.37-3.81-5.53-7.73-6.26-1.18-.22-4.45-1.35-3.05-4.49.22-.48.85-1.13-.57-1.38-4.61-.84-4.59-.94-3.72-5.63-4.74,2.63-9.25,4.57-9.92-3.53-.04-.47-.59-1.06-1.05-1.3-11.01-5.72-15.95-16.76-22.85-26.08-1.57-1.43-2.65-3.25-3.63-5.05-2.5-4.62-.27-9.03,5.81-11.93,6.38-2.84,9.3-9.63,15.05-13.2,3.46-2.79,7.22-3.86,11.5-2.05Z"/>
    <path class="cls-3" d="m360.93,298.73c-3.06-2.58-5.01-5.81-5.88-9.72-1.84-8.28-3.76-16.55-5.56-24.84-.34-1.58-1.18-3.23,1.04-4.51,15.69-9.02,32.14-14,50.35-9.74,2.21.52,4.59.78,6.45,2.35.31,1.66,1.09,3.39.83,4.96-.57,3.53,1.08,4.41,4.1,4.4,4.13-.02,7.41.76,5.95,6.26-.72,2.71,2.02,3.83,3.2,5.66-1.38,9,2.21,16.04,10.05,22.46-5.34.61-9.52.54-13.37,1.63-8.76,2.48-16.25,7.74-24.27,11.84-3.45,1.76.91,2.9-.25,4.3-2.98.88-5.48-1.14-8.27-1.57-9.28-2.41-17.08-7.5-24.38-13.49Z"/>
    <path class="cls-3" d="m294.85,302.2c-.3.49-.84.96-.86,1.47-.49,8.79-4.63,16.66-6.51,25.14-1.35,6.11-6.46,11.52-12.29,15.23-.62.73-1.23,1.5-2.36,1.22-3.66-.91-10.41-8.67-10.99-12.53-.29-1.89.19-3.01,2.31-2.83,2.66-4.79,3.01-10.65,7-14.83,1.02-1.07,1.75-2.44,2.79-3.54,3.59-2.68,4.32-7.22,6.54-10.77.93-1.49-.88-4.96-.68-7.63.18-2.4-.29-5.16,3.15-5.81.77-.04,1.53.01,2.27.16,9.55,1.88,11.26,4.49,9.63,14.73Z"/>
    <path class="cls-5" d="m294.85,302.2c.01-9.23-.9-10.24-12.73-14.12-3.52-1.86-.57-5.55-2.24-7.93-.48-1.49-.96-2.99-1.44-4.48-.5-1.16-.54-2.18.82-2.79,2.71.37,3.76,2.42,4.6,4.64.96,2.54,3.06,3.57,5.45,3.49,2.66-.08,3.08-2.58,3.69-4.57.68-2.19.47-4.64,1.97-6.59,2.91-5.7,8.38-2.53,12.62-3.63v.02c1.36-.79,2.33-.81,2.33,1.15-1.84,2.14-6.48,1.2-6.05,6.06.18,2.06-1.73,4.22,1.46,5.62,1.91.84,1.13,2.92,1.22,4.53-4.58.72-8.03,2.02-6.7,8.06.96,4.39-4.25,6.55-4.99,10.53Z"/>
    <path class="cls-3" d="m396.96,320.77c-.82-4.02,1.08-6.15,4.63-7.83,6.05-2.86,11.7-6.3,18.98-5.22,4.14.62,3.27,1.98,1.6,4.19-3.25,4.29-6.78,8.31-11.35,11.27-5.19,2.1-9.5-.77-14.02-2.47l.17.06Z"/>
    <path class="cls-5" d="m461.77,341.86c3.32.96,6.76,1.64,9.93,2.95,4.26,1.75,7.06.7,8.86-3.44.15-.35.39-.66.62-.97,1.74-2.37,4.48-5.73,6.67-4.21,2.24,1.55.92,5.93-.89,8.3-2.2,2.87-4.88,5,1.16,5.95-1.16,3.55,4.61,5.37,1.92,9.76-9.16-6.94-18.25-14.11-29.56-17.32.43-.34.86-.68,1.29-1.02Z"/>
    <path class="cls-5" d="m365.51,378.6c-4.94.65-8.88-1.87-12.93-4.06-4.12-2.23-8.54-4.02-12.89-5.84-.73-.17-1.44-.36-2.14-.58-.01.02-.02.03-.03.05,9.6,4.44,17.43,11.4,25.59,17.82-.56-2.9,2.43-4.66,2.4-7.39Z"/>
    <path class="cls-5" d="m360.93,298.73c8.13,4.5,16.26,8.99,24.38,13.49-.01.53-.03,1.07-.04,1.6-3.82-1.78-9.14.53-11.76-5.18-.89-1.93-4.4-4.46-7.95-2.51-1.18.65-1.91.24-1.55-1.1.76-2.84-2.26-3.15-3.11-4.88.01-.47.02-.94.04-1.41Z"/>
    <path class="cls-5" d="m264.64,331.28c-.69-.06-1.81-1.91-1.98-.15-.46,4.68,7.19,12.32,12.52,12.91.04,1.92-1.03,3.28-2.25,4.58-.76-2.62-3.17-3.78-4.94-5.45-3.22-3.03-6.74-5.75-7.2-10.65-.25-2.61-2.09-2.73-4.13-2.31.4-3.5,3.12-2.87,5.24-2.65,1.92.2,3.98.91,2.76,3.73Z"/>
    <path class="cls-5" d="m447.9,297.56c6.04,1.04,11.71-.84,17.45-2.38-3.73,4.67-8.71,5.23-14.08,4.55-.92-1.05-2.79-.6-3.37-2.17Z"/>
    <path class="cls-5" d="m396.79,320.71c4.93-.63,8.99,3.68,14.02,2.47-1.02,1.83-3.46.51-4.6,2.08-4.67,1.64-6.95-1.65-9.43-4.55Z"/>
    <path class="cls-5" d="m334.38,235.99c-2.56-3.52-2.66-7.75-3.61-11.77-.61-2.6,1.01-3.24,2.38-4.36,2.12,3.74,2.04,8.08,3.33,12.04.72,2.23-.78,3.05-2.1,4.09Z"/>
    <path class="cls-5" d="m369.96,238.48c1.15-2.9,3.83-1.74,5.87-2.15,4.65-.93,9.56.78,14.12-1.3.79.02,1.57.03,2.36.05.36.26.48.51.34.75-.13.23-.26.35-.39.35-7.28,2.21-14.96.62-22.29,2.3Z"/>
    <path class="cls-5" d="m392.25,236.18c0-.37.02-.74.05-1.1,3.12-.28,5.51-3.61,9.42-2.1-2.91,2.44-5.95,3.51-9.48,3.2Z"/>
    <path class="cls-5" d="m335.26,251.38c-4.44-1.17-8.03.79-11.5,3.16-.5-.31-1.18-.43-1.27-1.19-3.78-7.14-9.08-13.59-9.93-22.04-.15-1.5-.29-3-.44-4.5,3.2-.41,1,2.69,2.29,3.52,1.27,5.74,3.04,11.21,6.25,16.3,2.52,3.99,4.86,5.37,8.74,2.08,1.18,2.6,4.77-.13,5.87,2.66Z"/>
    <path class="cls-5" d="m391.94,181.89c-10.12-3.54-14.1-12.89-19.75-21.79-.77,3.24-1.31,5.53-1.85,7.82-.6-3.64-.83-7.18,2.48-9.82,2.38,3.69,4.72,7.41,7.16,11.07,3.37,5.04,7.61,9.11,13.29,11.5-.44.41-.89.83-1.33,1.24Z"/>
    <path class="cls-3" d="m260.05,352.59c.88,3.71-.95,5.4-5.1,5.69-3.02.21-5.98,1.17-8.97,1.8-1.37.29-3.26.99-2.93,2.27,1.34,5.24-1.66,5.8-5.66,6.5-3.34.59-3.94,3.69-4.04,6.81-.22,7.17-4.13,13.01-10.73,13.82-3.55.43-8.22-1.57-9.79-5.28-2.43-5.71-2.39-11.92-.18-17.92.13-.36.17-.9.42-1.04,7.13-4.19,8.19-12.55,12.78-18.42,3.03-3.88,8.25-2.88,12.21-2.37,4.82.62,9.58.72,14.34.55,6.86-.25,7.69.31,7.66,7.61Z"/>
    <path class="cls-5" d="m264.64,331.28c-2.07-4.73-5.07-2.62-7.99-1.08-4.62,3.42-8.79,7.66-15.01,8.12-1.16.32-2.5,1-2.36-1.21,1.08-.24,2.57.12,2.95-1.3,1.67-6.24,7.07-10.06,9.9-15.58,4.47-8.71,7.45-17.33,3.09-27.01-3.38-7.5-2.08-14.54,2.68-21.07,2.17-.03,1.5,1.24,1.1,2.39-.61,11.36,2.03,22.07,6.39,32.46,1.93,4.59,4.49,5.99,8.44,2.07,2.86.31,1.8,2.04,1.29,3.57-4.98,4.89-8.22,10.58-8.38,17.76-.02,1.06.84,3.07-1.68,2.47-.26-.06-.29-1.03-.43-1.58Z"/>
    <path class="cls-5" d="m307.58,266.23c-1.75,1.64-4.5,2.44-6.12,1.81-3.44-1.33-4.08,1.3-5.65,2.76-4.86-.82-9.25-2.45-12.09-6.83-.8-1.17-2.97-1.27-2.66-3.33,2.5-1.67,5.93-2.34,6.47-6.09.53.04,1.06.08,1.59.12-.12,1.13-.11,2.29-.39,3.38-1.62,6.3-.91,7.3,5.93,8.15,3.36-2.34,7.09-1.76,10.79-1.36.71.46,1.42.92,2.14,1.38Z"/>
    <path class="cls-3" d="m275.13,312.63c-.22-1.27.26-2.79-1.29-3.57,3.12-1.98,3.15-5.25,3.61-8.41.98-6.81,2.94-13.51,2.43-20.5,2.47,2.15.25,5.64,2.24,7.93-2.88,5.8-.64,11.04,2.24,16.13-2.53.83-2.99-1.99-5.33-1.76,2.76,4.97-2.97,6.53-3.89,10.18Z"/>
    <path class="cls-5" d="m259.01,274.54c-.37-.8-.73-1.59-1.1-2.39,3.25-7.61,5.07-9.72,11.39-12.49-3.42,4.96-8.3,8.98-10.29,14.88Z"/>
    <path class="cls-5" d="m281.06,260.65c1.15.63,2.31,1.25,3.46,1.88-4.08,2.51-3.99,6.96-5.07,10.87-.34.76-.68,1.51-1.02,2.27-3.31-7.38-2.79-10.35,2.63-15.02Z"/>
    <path class="cls-5" d="m239.28,337.11c.79.4,1.58.8,2.36,1.21q-3.56,1.11-7.95.59c1.44-2.43,3.6-1.87,5.58-1.8Z"/>
    <path class="cls-5" d="m305.45,264.86c-3.33,2.6-7.22.73-10.79,1.36,3.62-9.32,5.31-18.93,4.5-29.07,1.47,9.46,2.78,18.84,6.29,27.71Z"/>
    <path class="cls-5" d="m322.49,253.35c.42.39.85.79,1.27,1.19-4.71,4.19-7.98,9.92-13.85,12.86-.48-.97-1.43-1-2.32-1.15,5.08-2.17,6.91-5.17,3.65-10.52-1.39-2.27-2.86-4.95-2.53-7.97-.56-1.22.06-1.35,1.05-1.15.98,1.84,1.78,3.81,2.98,5.5,4.09,5.79,4.44,5.79,9.75,1.24Z"/>
    <path class="cls-5" d="m314.41,230.34c-.76-1.17-1.53-2.35-2.29-3.52-2.22-3.59-3.55-7.52-4.49-11.61.42-.41.83-.82,1.25-1.22,2.73,5.15,5,10.46,5.54,16.35Z"/>
    <path class="cls-5" d="m305.16,237.4c-2.81-4.05-.73-9.88-4.57-13.65,5.61,1.74,4.08,7.38,5.79,11.25-.82.59-.18,1.92-1.22,2.41Z"/>
    <path class="cls-5" d="m305.16,237.4c.31-.85.11-1.96,1.22-2.41,1.13,3.87,2.26,7.75,3.38,11.62-.35.38-.7.77-1.05,1.15-1.97-3.18-3.49-6.52-3.55-10.36Z"/>
    <path class="cls-3" d="m425.96,241.46c0-2.32-.25-4.67.05-6.94,1.09-8.32-2.81-13.08-11.42-11.93-6.39.85-12.68.53-19.01.71-4.23.12-7.6,1.35-9.42,5.36-1.93,4.27-5.63,4.34-9.34,3.84-3.84-.52-4.38-4.36-4.04-6.72,1.21-8.38.8-17.1,4.64-25,.75-1.55,2.24-3.44,1.86-4.73-2.48-8.65,2.6-5.03,6.29-4.18,2.79.64,6.06,1.16,8.51.75,9.23-1.56,12.45,7.19,19,9.98,3.89,12.38,15.62,9.59,24.37,12.58.89.3,2.31-.04,2.77.51,5.08,6.11,12,3.96,18.32,4.12,3.25.08,5.46,1.01,7.02,3.97,2.01,3.85,5.7,6.18,8.98,8.78,2.32,1.83,4.33,4.13,3.09,6.76-1.18,2.49-4.25,2.74-7.11,2.26-6.69-1.12-10.95,3.71-10.27,10.47.49,4.9.52,9.4,6.14,11.46.96.35,2.14,2.41,1.91,3.36-1.47,5.89.96,11.3,1.61,16.92.29,2.49-1.09,3.42-3.49,3.37-4.05-.08-8.11-.04-12.17-.01-1.67.01-3.25-.48-4.01-1.89-3.18-6-8.52-10.13-12.82-15.15-1.13-1.32-1.1-2.82-1.11-4.36,0-1.82-.34-3.92-1.88-4.64-8.76-4.06-8.62-11.83-8.47-19.63Z"/>
    <path class="cls-3" d="m358.02,266.88c3.15-2.33,5.97-2.13,8.54-1.57,4.71,1.03,7.94-.76,9.91-4.75,2.26-4.57,5.54-6.15,10.65-6.04,7.84.17,13.77,4.27,20.41,7.53,10,4.92,6.11,13.27,6.61,20.57.15,2.24-12.47,13.63-14.87,13.69-7.8.2-15.62,1.28-23.41,0-2.96-.48-5.18-1.56-5.8-5.29-.68-4.13-5.07-6.64-5.69-11.22-.24-1.74-1.27-3.58-1.08-5.49.38-3.82-1.19-6.29-5.27-7.45Z"/>
    <path class="cls-3" d="m279.44,273.4c-1.46-7.44-.49-9.54,5.07-10.87,1.54,3.69,4.34,5.82,8.27,6.25,1.49.16,2.65.39,3.02,2.02-2.41,2.89.32,7.31-3.01,9.97-1.09.86-1.42,3.48-3.21,2.45-2.38-1.38-6.97-1.02-6.88-4.04.1-3.23-2.05-3.97-3.26-5.78Z"/>
  </g>
  <path class="cls-2" d="m378.17,73.67c-2.13-7.81-4.46-15.56-7.62-23.02-2.52-5.95-6.31-14.27-13.5-15.28-.05-.12-.09-.24-.13-.35-.2-.48-.61-.76-1.13-.89-.06-.43-.33-.8-.96-1-1.88-.57-3.92.51-5.38,1.58-2.34,1.72-4.61,3.67-6.68,5.82,1.92-3.25,4.38-6.17,7.24-8.48.99-.8,1.95-2.64.18-3.18-1.82-.56-3.99.46-5.38,1.58-1.17.95-2.29,1.99-3.36,3.1-1.34-.9-5.48.21-6.53,1.78-2.9,4.34-4.98,8.98-6.23,13.95-1.73.19-3.48.91-4.6,2.29-.97,1.2-.53,2.73,1.19,2.67.29,0,.57,0,.86.02.58.18,1.17.34,1.76.47.01.02.01.04.02.06-1.11-.02-2.23.06-3.34.28-1.77.36-3.95,1.16-4.77,2.94-.77,1.64,1.22,2.25,2.48,1.99.03,0,.06,0,.08-.01-.6.27-1.44.79-2.04,1.43,8.19.47,16.21,2.57,23.47,6.26.99-.52,1.84-1.21,2.18-1.96.29-.53.32-1.06.11-1.48-.16-1.73-.68-3.38-1.13-5.06.45-.46.74-.95.8-1.43.14-.14.22-.35.17-.56.17-.14.26-.35.15-.62-.21-.5-.47-.96-.78-1.39.13-.15.27-.3.4-.45,1.13-.5,2.19-1.28,2.6-2.31.14-.34.26-.67.39-1.01.08-.09.16-.17.23-.26.18.45.34.9.5,1.36.69,6.79,1.48,13.57,3.14,20.2.38,1.51,3.13,1.12,5.19-.06.18,1.51.35,3.01.52,4.52.36,3.27,7.89.47,7.6-2.18-.86-7.71-1.78-15.4-3.48-22.94.7,1.68,1.28,3.23,1.74,4.37,2.71,6.66,4.7,13.61,6.59,20.54.71,2.59,8.21-.38,7.41-3.3Z"/>
  <path class="cls-3" d="m351.42,124.79c-.36-.34-.92-.42-1.37-.17-5.64,3.1-12.17,3.54-17.99,6.09-1.12.11-2.24.28-3.31.49-5.99.73-11.92,1.81-17.48,4.3-.37.1-.74.2-1.11.3-1.17.28-2.35.56-3.52.83-3.57.3-7.08.6-10.4,2.14-6.36-2.31-14.81,3.08-21.26,2.49-1.49-.14-1.48,2.18,0,2.32.16.01.34.01.51.02-.01.11-.02.22-.03.33-.53.5-.54,1.41-.02,1.79.14,2.68.97,5.23,1.89,7.78-.01.08-.04.14-.03.23,0,.05,0,.09.01.14-.13,1.21.12,2.63.47,3.98.44,2.6,1.17,5.18,2.17,7.64,1.48,5.05,4.64,9.46,8.7,12.83,1.14.95,2.79-.68,1.64-1.64-.73-.61-1.42-1.26-2.08-1.93.19-.39.18-.86-.24-1.26-.29-.27-.54-.58-.81-.87.26-.41.32-.97-.06-1.45-1.87-2.34-3.63-5.23-4.63-8.28.27-.27.42-.64.29-1.06-.13-.38-.23-.76-.29-1.16,0,0,0,0,0,0,.2.15.41.3.62.45.98.68,1.91-.45,1.64-1.37.37-.42.51-1.07.06-1.61-.37-.45-2.86-3.82-3.63-5.63.69-.1,1.32-.69,1.05-1.39.1,0,.21.02.31.02,1.05.03,1.48-1.27.82-1.98-.46-.5-.92-.89-1.41-1.19.86.19,1.73.38,2.6.52,1.46.23,2.09-2,.62-2.24-1.6-.25-3.16-.63-4.71-1.07,1.79-.41,3.55-.95,5.29-1.63.35-.14.57-.39.69-.68.93-.24,1.86-.5,2.79-.77.44-.13.67-.44.76-.78.11.08.22.16.37.2,2.26.67,4.54.93,6.83,1.14.13.12.28.2.45.26-.57.82,0,2.2,1.16,1.79.72-.25,1.44-.53,2.14-.83.44-.17.88-.33,1.33-.49.24.14.53.21.88.16,2.47-.35,4.82-1.1,7.09-2.07.23.47.72.81,1.31.62.51-.17.99-.36,1.49-.55.13.47.56.83,1.1.85,0,.67.69,1.27,1.47,1.14.31-.05.63-.11.94-.16.21.49.75.86,1.38.74,4.55-.88,2.53-3.17.11-4.96.32-.64-.05-1.4-.71-1.59.81-.51,1.72-.88,2.66-1.17,1.43-.33,2.87-.66,4.31-.98.46-.1.7-.4.78-.74.86-.12,1.71-.24,2.57-.38-.5.93.5,2.29,1.56,1.58.54-.36,1.08-.72,1.62-1.08.12.05.26.08.41.08.2,0,.38-.01.58-.02,0,.19.03.39.16.6.08.14.16.28.24.42-.7.38-1.01,1.5-.11,2.03,2.58,1.5,2.07,6.1.74,8.27-.78,1.28,1.22,2.44,2,1.17.19-.3.35-.64.5-.98.28,1.15,1.97,1.22,2.23.2.43.24,1.03.22,1.44-.14.51-.45,1-.93,1.47-1.41.3.02.61-.06.85-.33,3.62-4.04,6.77-8.28,9.12-13.19.34.76.7,1.69.94,2.23.26.59.89.68,1.4.46-.05.89-.1,1.66-.11,2.14-.01,1.5,2.31,1.49,2.32,0,.03-3.24.87-10.86-3.56-11.55Z"/>
  <path class="cls-2" d="m316.51,205.48c-.48-.38-.99-.67-1.52-.92.29-.18.34-.68.07-.96-.33-.35-.62-.73-1.01-1.01-.24-.18-.5-.14-.69,0-.46-.55-.95-.95-1.54-1.19-.23-.24-.46-.47-.67-.72-.12-.16-.24-.33-.37-.48-.25-.3-.49-.61-.71-.93-.74-1.53-1.78-2.97-3.11-3.96-.23-.27-.48-.52-.75-.75-.04-.24-.07-.48-.07-.71,0-.28-.16-.44-.36-.49-.03-.07-.07-.13-.13-.19-1.19-1.02-2.32-2.1-3.41-3.21-1.05-1.93-2.2-3.78-3.69-5.35-.32-.34-.73-.12-.87.23-.61-.76-1.21-1.52-1.78-2.3-.3-.4-.81-.23-.99.1-.67-.51-1.33-1.03-2-1.56-.67-.81-1.27-1.67-1.72-2.61-.28-.59-1.15-.35-1.14.17-2.09-1.92-3.98-4.04-5.33-6.47.12-.18.16-.41.02-.65l-1.3-2.17c-.18-.31-.51-.3-.75-.15-.72-1.11-1.39-2.25-1.99-3.42,0-.02,0-.03-.02-.05-.06-.11-.11-.22-.17-.32-1.47-2.97-2.52-6.12-3.01-9.43.05-.27.1-.54.18-.8.63-.82,1.2-1.69,1.81-2.52.2-.27.12-.56-.05-.75.38-.49.78-.97,1.21-1.42.51-.55-.38-1.29-.89-.74-1.24,1.32-2.35,2.81-3,4.47-.32-.02-.65.17-.61.59.01.12.04.24.05.36-.07.08-.13.16-.21.24-.33.33-.09.73.25.86-.03.24-.06.47-.07.72-.1,3.1,1.82,6.3,3.32,8.98.8,1.6,1.7,3.15,2.71,4.64.15.23.38.28.58.22,1.88,4.56,5.59,8.1,9.47,11.22.94,1.06,2,2.02,3.09,3.02.7.64,1.38,1.3,2.05,1.96,1.36,1.94,2.77,3.83,4.14,5.76,1.6,3.66,3.71,7.78,6.85,9.79.04.04.08.08.12.12,2.06,1.97,5.1,1.94,7.28,3.67.59.46,1.33-.42.74-.89Z"/>
  <path class="cls-2" d="m330.58,179.06c-3.02-.1-5.9-.92-8.83-1.54-2.7-.57-5.45-.89-8.12-1.64-.72-.2-.92.94-.21,1.14,2.66.75,5.41,1.08,8.12,1.64,2.25.47,4.46,1.03,6.73,1.34-1.36.57-2.81,1.09-4.28,1.51-1,.2-2.02.34-3,.29-.55-.15-1.11-.26-1.68-.36-.1-.04-.21-.06-.32-.11-.17-.08-.34-.07-.47,0-1.9-.2-3.8,0-5.48.99-1.19.35-2.41.45-3.56-.05-.12-.21-.36-.36-.62-.3-.27-.11-.5.03-.61.26-.06.03-.13.06-.19.12-.1.1-.21.18-.31.28-.62.4-1.24.79-1.87,1.15-.77.31-1.55.61-2.34.82-.13.02-.26.04-.39.05-.56.06-2.58.37-2.9-.3-.03-.06-.07-.11-.12-.16,1.26-.91,2.22-2.14,3.38-3.18,1.32-1.18,2.9-2.11,4.45-2.95.66-.35-.02-1.3-.67-.95-.2.11-.39.22-.58.33-.14-.12-.32-.18-.54-.11-3.27,1.02-5.06,4.28-7.57,6.35-.53.44,0,1.28.55,1.01,0,.02,0,.03.01.05.14.28.33.5.57.67-.01.26.12.52.45.56.52.08,1.03.08,1.53.06-.18.42.17,1.02.71.79.87-.38,1.72-.8,2.56-1.24.31-.06.6-.11.84-.16.17.23.48.36.79.16.56-.35,1.13-.67,1.72-.96.43-.15.85-.33,1.26-.53,1.08.29,2.34.05,3.4-.04.26-.02.41-.19.47-.38.81-.27,1.61-.43,2.4-.51.64.13,1.28.23,1.93.27.35.13.68.25.93.32,1.02.28,2.25.17,3.29.13.13,0,.27-.02.4-.03.24.05.47.1.72.15.3.06.5-.09.6-.3,2.12-.36,4.15-1.2,5.93-2.4.29-.2.29-.52.15-.75.13-.11.2-.24.21-.39.22.01.44.03.66.04.75.03.64-1.13-.1-1.16Z"/>
  <path class="cls-5" d="m359.11,399.01c-.18.18-.37.35-.56.51-2.32.69-4.53,1.75-7.01,1.64-.83-.04-.71,1.26.11,1.29.21.01.41,0,.62,0,0,.34.24.68.68.66.9-.05,1.78-.24,2.62-.51-.31.57.36,1.14.94.83.07-.04.13-.07.2-.11,0,.18.02.35.02.53-.14.84-.22,1.69-.15,2.57.05.72,1.19.8,1.29.06.02-.15.03-.3.04-.45-.01.78-.02,1.55-.03,2.33,0,.38.32.57.64.57-.16,1.45-.45,2.89-1.01,4.29-.31.78.86,1.33,1.17.56,1.83-4.59,1-9.43,1.57-14.23.08-.66-.68-1-1.14-.54Z"/>
  <path class="cls-6" d="m329.96,138c-.73-.15-.94,1-.21,1.14.19.04.4.09.62.14,0,.19.09.38.3.49.12.06.23.13.34.2.06.12.18.21.33.26.03.09.08.17.17.24.07.06.13.11.2.17l.5.61c.18.41.24.87.07,1.38-.06.18-.02.33.06.46-.44.92-1.46,1.76-2.36,2.35-.51.33-1.07.6-1.64.83-.5.13-1.01.25-1.52.36-.14-.12-.32-.18-.54-.08-.44.18-.88.33-1.33.47-.61.06-1.21.09-1.8.08-.36,0-.51.25-.5.53-1.17.23-2.35.39-3.55.53-.85.1-1.72.38-2.54.59-1.23.32-2.55,1.47-1.23-1.12.34-.67-.71-1.16-1.05-.5-.35.69-1.1,3.9.74,3.35,3.03-.9,6.26-1.2,9.31-2.05.08,0,.16,0,.25-.03.31-.11.63-.21.95-.3,1.28-.16,2.52-.5,3.69-1.01,1.58-.5,3.04-1.2,4.2-2.62.6-.73,1.15-1.71,1.21-2.58.06-.09.1-.2.07-.35-.45-2.19-2.74-3.12-4.72-3.51Z"/>
  <path class="cls-6" d="m299.47,152.96c-.12-.73-1.27-.64-1.16.1.18,1.14.28,2.28.32,3.42-.18-.43-.41-.82-.68-1.18.11-.17.14-.38-.03-.59-.16-.19-.33-.36-.51-.52-.16-.31-.33-.62-.51-.93-.04-.06-.08-.1-.12-.14.29-.1.39-.34.35-.58.64.19,1.06-.76.42-1.06.29-.38.12-1.05-.45-.93-.81.17-1.6.4-2.39.64-1.8.27-3.65,1.18-5.29,1.54-.12.03-.21.08-.28.16-.83.21-1.67.37-2.53.48-1.22,0-2.45-.25-3.7-.87-.01,0-.02,0-.03,0-.45-.89-.42-1.97.37-3.01.08-.11.11-.22.11-.32.21-.51-.54-1.05-1-.57-1.24,1.3-2.06,2.97-1.63,4.78.42,1.8,2.41,2.36,4.01,2.4.28,0,.43-.15.49-.34.08.01.15.03.23.04.55.07.79-.52.59-.88.28-.02.55-.06.83-.1,1.42-.03,2.82-.33,4.23-.77.07.26.29.49.6.44.05,0,.1-.02.15-.03h0s.02,0,.03,0c.09-.02.17-.03.26-.06.13.24.43.43.73.36.07-.02.14-.04.22-.06.06.04.12.07.2.09,1.21.26,2.69.35,3.4,1.5.05.09.12.15.19.19.48,1.33.8,2.69.58,4.16-.1.66.8.89,1.07.41-.13,1.61-.35,3.21-.63,4.81-.13.74,1.01.95,1.14.21.75-4.23,1.11-8.5.44-12.77Z"/>
  <path class="cls-6" d="m358.18,133.34c-.42,1.88-.99,3.71-1.59,5.53.05-.42.1-.83.12-1.26,0-.02,0-.04,0-.06.24-.12.4-.37.27-.69-.15-.37-.3-.74-.46-1.11.11-.45.21-.89.34-1.34.03-.1.02-.19,0-.27,0-.01,0-.02,0-.03-.14-.66-.26-1.32-.39-1.98.27-.21.39-.62.04-.88-.1-.07-.19-.15-.28-.23-.08-.33-.17-.65-.27-.98-.11-.35-.43-.43-.7-.33-.01-.09-.04-.17-.08-.23.08-.13.12-.28.06-.45-.19-.54-.41-1.07-.63-1.59-.16-.59-.33-1.19-.49-1.78.4.92.79,1.85,1.19,2.77.3.68,1.38.28,1.09-.4-1.01-2.32-1.99-4.66-3.05-6.96-.28-.6-1.13-.41-1.12.25.01.85.12,1.68.27,2.49-.1-.04-.2-.06-.31-.06-.05-.17-.16-.29-.3-.37-.17-.44-.83-.52-1.06-.05-.02.05-.04.1-.06.15-.25-.06-.51.01-.63.26-.21-.16-.52-.17-.74,0-.23-.39-.95-.4-1.08.18-.03.17-.08.33-.11.5-.3-.15-.77-.06-.9.37,0,.03-.02.05-.02.08-.13-.49-.97-.54-1.14.07-.1.36-.19.71-.28,1.07-.01-.1,0-.19-.02-.29,0,0,0-.01,0-.02,0-.09,0-.18,0-.27-.01-.54-.7-.66-1.02-.32-.39.42-.67.92-.88,1.48-.09-.05-.19-.07-.3-.07-.05-.17-.15-.29-.27-.36-.01-.05-.02-.1-.03-.15-.14-.52-.82-.45-1.05-.07-.34-.27-.81-.14-.94.31-.06.22-.1.44-.12.64-.26-.17-.52-.12-.69.06-.18-.46-.35-.91-.54-1.37.03-.13.02-.28-.07-.43-.15-.24-.29-.48-.43-.73-.34-.56-1.28-.06-1.02.54.23.52.44,1.03.65,1.55-.15-.27-.31-.53-.5-.78-.45-.59-1.4.07-.95.67.34.45.6.93.79,1.43-.03,0-.06,0-.09.02-.12-.02-.23,0-.34.06-.08,0-.15,0-.23.03-.13-.38-.63-.42-.91-.18-.12.02-.25.06-.35.18-.09.1-.16.23-.24.35-.12-.58-1.04-.48-1.12.14-.24.14-.45.36-.62.61-.21-.15-.46-.16-.65-.03,0-.01,0-.02-.01-.03-.22-.45-.71-.44-.96-.16-.25-.45-.86-.38-1.06-.05-.02-.12-.07-.22-.14-.31-.06-.32-.37-.58-.71-.48-.01-.4-.47-.79-.91-.5-.17.11-.33.23-.5.35-.18-.15-.34-.31-.53-.46-.59-.46-1.34.43-.75.89.11.08.19.17.3.26-.69.48-1.36.97-2.03,1.47-.79.36-1.58.7-2.38,1.03-.02,0-.04,0-.06,0-.93.06-1.81.26-2.66.55-.09-.11-.22-.19-.37-.22.01-.17.03-.35.03-.53,0-.42-.6-.7-.91-.42-.55.49-1.02,1.04-1.43,1.64-.15.03-.28.13-.35.32-.02.04-.03.08-.05.12-.16.03-.3.12-.39.31-.07.16-.13.33-.2.49v-.15c0-.25-.13-.39-.29-.46-.08-.42-.66-.72-1.02-.3-.03.04-.07.08-.1.12-.19-.34-.64-.51-.92-.12-.15.21-.28.43-.42.64-.18-.26-.53-.38-.8-.14-.22-.32-.84-.38-1.04.06-.08.17-.14.34-.21.51-.27-.18-.65-.17-.8.22-.02.06-.04.12-.07.18.1-.71-.94-.88-1.13-.19-.16.03-.3.12-.39.3-.11.22-.2.44-.29.67-.26-.45-1.02-.28-1.06.33-.17-.21-.48-.21-.71-.07-.06-.29-.12-.58-.17-.88-.09-.51-.64-.62-.95-.38-.21-.44-.89-.32-1.05.1-.31-.44-1.09-.22-1.04.38.03.37.07.73.12,1.09-.08-.15-.15-.31-.23-.46-.25-.46-.91-.23-1.03.19-.31,0-.63.27-.6.63.02.21.06.42.09.64-.07-.1-.13-.2-.2-.3-.31-.42-.86-.24-1.01.16-.03-.02-.06-.04-.09-.06-.3-.16-.58,0-.72.24-.34-.22-.83-.05-.92.29-.09-.1-.18-.2-.27-.3-.14-.15-.3-.18-.45-.14-.04-.59-.07-1.18-.07-1.78,0-.65-.87-.65-1.1-.15-.19.09-.34.27-.34.54,0,.63.1,1.25.24,1.86-.1-.03-.21-.03-.32,0-.26-.41-1-.45-1.06.16,0,.05,0,.09,0,.14-.07.07-.12.17-.14.3-.03.2-.04.4-.05.59-.07-.08-.14-.16-.21-.24-.37-.42-1.09-.23-1.05.39,0,.07.02.14.03.21-.52-1.01-1.04-2.04-1.59-3.06-.07-.13-.17-.2-.27-.23-.18-.16-.43-.21-.63-.1-.39-.57-1.27.08-.91.71.09.16.18.33.27.49-.04.09-.08.19-.12.28-.08-.06-.18-.11-.3-.18-.34-.19-.7.05-.8.37-.49-.85-.95-1.7-1.37-2.52-.33-.66-1.43-.26-1.09.4.52,1.02,1.11,2.08,1.74,3.14-.08.13-.16.25-.24.38-.15-.38-.64-.59-.96-.18-.24.3-.44.63-.65.94.02-.16.05-.31.07-.47.04-.44-.31-.7-.65-.66-.21-.03-.45.06-.59.3-.13.21-.22.45-.33.67,0-.48-.73-.75-1.07-.29,0-.1,0-.2-.01-.3.1-.19.2-.39.28-.59.16-.37-.08-.68-.38-.78,0-.03,0-.06,0-.09-.06-.75-1.21-.64-1.16.1.01.18.02.36.04.55-.1.08-.17.21-.17.37-.14-.07-.3-.08-.46-.04.08-.18.17-.36.25-.53.31-.68-.74-1.18-1.05-.5-.44.97-.89,1.94-1.36,2.9-.23-.07-.5,0-.67.29-.03.04-.05.09-.07.13-.07-.02-.13-.03-.2-.02,0-.02.01-.03.02-.05.21-.58-.39-.98-.81-.73.24-.24.49-.49.73-.74.53-.53-.37-1.27-.89-.74-.17.18-.35.35-.52.52-.18-.29-.6-.4-.93-.09-.65.62-1.22,1.29-1.76,1.99-.03-.03-.07-.05-.11-.07.04-.14.09-.29.13-.43.19-.64-.83-.94-1.09-.35-.17.38-.33.77-.49,1.15-.01-.03-.02-.06-.03-.09-.19-.48-.83-.49-1.07-.05-.05.1-.1.2-.15.3-.22-.06-.47,0-.64.16-1.49,1.45-1.93,3.48-2.02,5.5-.02.52.73.69,1.02.32.03-.04.06-.09.09-.13.06.02.12.02.18.02-.09.36-.19.72-.27,1.08-.11.5.49.81.87.61-.15.66-.31,1.33-.43,2-.06.32.1.52.31.61-.07.52-.13,1.04-.17,1.57-.02.27.16.5.38.62-.08.52-.17,1.04-.24,1.56-.04.29.1.49.3.59.03.26.21.43.42.48,0,.03,0,.06,0,.09,0,.25.13.39.29.46.04.04.09.06.13.09-.38.9-.73,1.82-1,2.78-.17.6.65.86,1.01.48.24-.26.47-.52.67-.8-.27,1.53-.47,3.07-.61,4.62-.02.11-.05.23-.07.34-.02.1-.01.19.01.26-.04.46-.06.93-.08,1.39-.1.74-.18,1.5-.22,2.26-.02.41.32.65.64.66.03,0,.06,0,.09,0,.01,0,.03,0,.04,0,.25-.02.48-.16.52-.45.03-.24.08-.47.12-.71.18.03.35-.02.46-.14.3.29.99.1,1.02-.47.21-5,1.67-9.79,2.75-14.65.62-1.6,1.22-3.21,1.75-4.84.46-.69.92-1.38,1.37-2.08.7-1.08,1.52-2.18,2.13-3.34-.05,2.08-.33,4.12-1.12,6.16-.24.63.5,1.09.97.62,2.63-2.64,5.11-5.28,7.02-8.36,2.61,3.87,6,7.39,10.35,8.66.07.05.13.09.2.14.17.11.32.11.45.05.46.42,1.25-.19.85-.76-1.41-2.03-2.46-4.22-3.14-6.52,2.61,3.51,6.85,6.31,10.25,7.81.06.03.12.03.18.04.37.28,1.03.1.93-.47-.65-3.79.43-7.39,2.4-10.54-.3,1.98-.26,4,.07,6,.09.56.83.74,1.1.2,1.12-2.22,2.74-3.95,4.56-5.48.06-.02.12-.05.18-.09.47-.39.94-.78,1.41-1.17,2.75-2.07,5.74-3.92,8.14-6.39.43.47.91.91,1.3,1.34,1.4,1.56,2.58,3.44,3.14,5.48.28,1.24.44,2.54.47,3.94.01.75,1.17.64,1.16-.1,0,0,0,0,0-.01.03-.04.07-.07.09-.13,1.67-3.6,4.46-8.92,3.46-13.21,1.85,5.15,2.58,10.25,1.44,15.89-.05.1-.1.21-.15.31-.31.65.64,1.12,1,.56.11-.07.2-.19.24-.36.01-.05.01-.1.03-.15,1.73-3.59,3.87-7.02,5.07-10.79-.03.29-.05.57-.08.86-.14,1.45-.21,3.14-.75,4.51-.05.13-.05.25-.02.36-.2.64.77,1.08,1.06.42,1.13-2.53,2.9-4.69,3.87-7.19.86,5.56,1.31,11.16,1.55,16.79h0c0,.07,0,.13.01.2.03.75,1.18.64,1.16-.1,0-.05,0-.09,0-.14,1.52-5.37,3.84-10.48,5.07-15.94.17-.73-.98-.94-1.14-.21Z"/>
  <path class="cls-6" d="m369.58,119.59c-.47-.19-.83.22-.82.59-.18.26-.18.68.18.89,1.52.89,3.61,1.76,3.45,3.86-.04.52.51.77.86.62,0,.05-.02.09-.03.14-.12.12-.17.29-.1.5-.1.44-.23.86-.4,1.21-.05.09-.06.18-.06.26-.1.08-.2.15-.28.21-.53.2-1.08.36-1.63.52-.1-.03-.19-.05-.29-.1-.42-.19-.77.14-.81.49,0,0-.01,0-.02,0-.07-.04-.14-.08-.2-.12-.6-.44-1.35.45-.74.89.01,0,.02.01.03.02-.27.42-.43.94-.52,1.61-.1.74,1.03.95,1.14.21.08-.55.15-1,.43-1.32,1.97.55,4.38-.52,4.75-2.38.13-.24.23-.49.27-.78.27-.5.43-1.03.4-1.52.08-.1.13-.22.1-.39-.55-3.06-3.05-4.31-5.69-5.4Z"/>
  <path class="cls-6" d="m374.66,136.43c-.29-1-.57-2.03-1.07-2.95-.21-.39-.69-.69-1.11-.39-.45.32-.39,1.08-.4,1.56,0,.53.57.62.91.37.22.59.4,1.2.58,1.81.21.72,1.29.31,1.09-.4Z"/>
  <path class="cls-6" d="m396.69,182.93c-1.76-.8-3.61-1.52-5.3-2.46-1.2-.67-2.25-1.51-3.39-2.22-.31-.19-.78.07-.82.42,0,.02,0,.03,0,.05-.04.32.16.53.39.62,1.11.7,2.14,1.53,3.33,2.18,1.7.94,3.54,1.66,5.3,2.46.68.31,1.18-.74.5-1.05Z"/>
  <path class="cls-6" d="m370.79,160.01c-.88,6.22-2.03,12.4-3.33,18.55-.16.73.99.94,1.14.21,1.31-6.15,2.45-12.33,3.33-18.55.11-.74-1.04-.95-1.14-.21Z"/>
  <path class="cls-6" d="m326.17,207.6c-1.48-.99-3.1-1.69-4.81-2.08-.73-.4-1.5-.74-2.3-.93-1.5-.36-3.07-.08-4.59-.03-2-1.94-5.33-2.4-7.75-.47-.13.11-.19.24-.21.37-.04-.03-.07-.06-.12-.08-1.72-.73-3.37-.85-4.9-.55.36-.42-.04-1.13-.63-.92-.08.03-.16.07-.24.11-.06,0-.13.01-.19.04,0,0-.01,0-.02,0-.12-.25-.4-.43-.71-.3-.25.11-.48.25-.72.39-.09-.01-.19,0-.3.05-1.2.58-2.14,1.48-3,2.49-.42.5.25,1.25.78.85.2-.16.4-.33.6-.49.03.03.06.06.09.09-1.66,1.56-2.9,3.71-3.48,6.06-.18.73.96.93,1.14.21,1.23-4.98,5.77-9.21,11.07-6.97.4.17.73-.11.8-.44.18.18.44.25.7.05.72-.57,1.55-.88,2.39-.98,0,.24.14.46.45.5.11.01.21.05.32.07.02.19.12.37.31.47.9.44,1.74.6,2.64.62,0,0,.01,0,.02,0,.2.03.39.07.59.11.44.58.76,1.27.87,2.08.1.74,1.26.64,1.16-.1-.08-.6-.26-1.15-.5-1.65,2.76.69,5.24,1.88,7.18,4.16.48.56,1.43-.1.95-.67-.55-.64-1.14-1.18-1.75-1.68.17-.1.29-.28.31-.48.33.2.65.4.99.62.38.25.81.01.94-.31.41.21.81.44,1.19.69.61.41,1.37-.47.74-.89Z"/>
  <path class="cls-6" d="m311.98,181.32c-1.31.31-2.64.06-3.9-.37-.7-.24-1.2.81-.5,1.05,1.59.54,3.15.79,4.8.41.73-.17.32-1.25-.4-1.09Z"/>
  <path class="cls-6" d="m321.6,180.51c-2.06.19-3.86-1.07-5.89-1.16-.75-.03-.64,1.12.1,1.16,2.05.09,3.79,1.35,5.89,1.16.74-.07.64-1.22-.1-1.16Z"/>
  <path class="cls-6" d="m399.72,232.88c-.2.03-.39.08-.58.12-.1-.1-.25-.15-.43-.12-3.84.63-7.61,1.57-11.45,2.17-1.97.31-3.95.47-5.92.67-1.64.1-3.28.3-4.92.65-.64.03-1.28.06-1.91.13-.74.08-.64,1.23.1,1.16.31-.03.63-.05.95-.07.1.07.21.1.36.07.27-.06.54-.09.81-.14,3.5-.15,7.01.14,10.5-.26.9-.1,1.79-.28,2.66-.49,3.53-.14,6.91-1.32,10.1-2.76.56-.25.43-1.24-.25-1.12Z"/>
  <path class="cls-6" d="m457.21,298.33c-.09.02-.17.06-.26.09-.27-.18-.67-.17-.84.21-.04.1-.09.2-.14.3-.13.1-.24.2-.36.32-.14,0-.28.06-.39.22-.03.04-.05.08-.08.13,0,0,0,0,0,0,0,0,0,.02,0,.02-.88,1.32-1.37,2.72-1.58,4.18-.53,1.79-.74,3.63.03,5.33.13.3.48.42.75.32.03.07.04.13.09.2.41.63,1.35-.04.95-.67.06-.1.13-.2.19-.3.1.1.2.21.31.31.58.48,1.32-.41.74-.89-2.32-1.92-.84-5.86.26-8.34.22-.15.46-.27.73-.33.73-.17.31-1.26-.41-1.09Z"/>
  <path class="cls-6" d="m462.33,305.69c-.05-.08-.1-.16-.14-.25.15-.14.22-.34.11-.59-.19-.43-.33-.87-.45-1.31v-.08c0-.14-.04-.23-.11-.31-.09-.43-.14-.86-.17-1.3.07-1.01.26-2.05.37-3.04.05-.12.09-.24.14-.36.02-.04,0-.08.02-.12.06-.15.11-.31.18-.46.27-.61-.52-1.06-.92-.68-.24.07-.46.26-.47.58,0,.1-.01.2-.02.3-.96.58-1.35,1.73-1.48,3.03-.43,1.69-.49,3.47-.62,5.22-.04.58.78.98,1.06.42.34.15.87-.05.86-.56,0-.02,0-.05,0-.07.08.21.14.42.23.61.27.59,1.14.36,1.14-.17.29-.14.5-.5.26-.85Z"/>
  <path class="cls-6" d="m484.84,297.05c.07-.49-.4-.74-.77-.64-.24-.07-.52.01-.67.23-.24-.39-.85-.32-1.04.16,0,0,0,0,0-.01-.01-.09-.01-.19-.03-.28-.03-.24-.18-.38-.35-.45-.05-.07-.09-.15-.14-.22-.28-.37-.78-.29-1,.09-.3.51-.32.91-.43,1.5-.11.55.49.8.87.59.03.86-.01,1.73-.16,2.57-.26.81-.5,1.62-.73,2.43-.23.51-.49,1.01-.82,1.48-.43.61.46,1.36.89.75.05-.07.09-.15.13-.22.07,0,.13-.02.2-.04.07.44.72.6,1.02.24.15.43.8.62,1.05.08.78-1.66,1.38-3.58,1.49-5.47.18-.93.35-1.86.49-2.79Z"/>
  <path class="cls-6" d="m493.41,296.99c-.05-.67-.08-1.35-.06-2.02.02-.75-1.14-.64-1.16.1,0,.35,0,.7,0,1.05-.08.06-.13.17-.17.29-.09.02-.17.07-.24.12-.33-.5-.71-.96-1.17-1.38-.55-.51-1.3.38-.75.89.88.81,1.46,1.83,1.82,2.94-.15,2.17,0,4.36.3,6.52,0,.01,0,.02.01.03-.11.82-.25,1.6-.39,2.33-.15.73,1,.94,1.14.21.07-.35.14-.72.2-1.09,0,.02,0,.04,0,.07.1.74,1.25.64,1.16-.1-.06-.46-.11-.92-.15-1.38.87-2.72.61-5.96-.56-8.58Z"/>
  <path class="cls-6" d="m498.27,292.36c-.49-.56-1.44.11-.95.67.14.16.25.34.39.51-.05.07-.07.15-.09.23-.15.15-.23.38-.18.6.02.05.05.08.08.13,0,0,0,0,0,0,.3.56.16,1.68.24,2.3.05.37.1.73.15,1.09-.19,2.32-.36,4.64-.26,6.96-.23.71-.54,1.41-.96,2.08-.4.64.66,1.12,1.05.5.06-.1.11-.2.17-.3.26.37.9.29,1.04-.23.07-.3.12-.59.17-.89.07.01.14.01.21,0,.26.28.75.33.92-.12,0,0,0,0,0-.01.11-.08.2-.19.24-.33.14-.48.24-.96.32-1.44,1.05-4.13.38-8.42-2.54-11.76Z"/>
  <path class="cls-6" d="m507.14,290.11c-.2-.27-.42-.52-.66-.76-.1-.1-.21-.14-.33-.14-.02-.02-.04-.04-.06-.05-.36-.27-1.07-.04-.95.49.01.06.02.12.04.18-.22-.11-.46-.03-.63.15-.18.03-.34.14-.44.31-.23-.26-.49-.45-.77-.55-.25-.09-.54,0-.7.19-.28-.13-.56-.24-.87-.32-.72-.2-.92.95-.21,1.14.48.13.91.34,1.29.6.04.03.09.06.13.08.48.35.89.79,1.22,1.3.52,1.47.79,3.34.9,4.06.14.96.17,1.92.13,2.89-.1.92-.22,1.84-.34,2.76-.03.08-.05.16-.08.24-.07.17-.05.32,0,.45-.02.15-.03.31-.05.46-.07.74,1,.95,1.14.21.09-.45.14-.89.2-1.34.16-.49.28-1.02.38-1.57.06.37.12.75.2,1.12.08.38.51.58.82.49.12.03.23.02.35-.02.31.11.69,0,.76-.41.1-.65.19-1.34.27-2.06.24-.04.47-.2.5-.46.47-3.14-.04-7-2.24-9.45Z"/>
  <path class="cls-6" d="m453.69,298.3c-2.89.11-5.44,2.15-6.85,4.58-.38.65.68,1.14,1.05.5,1.21-2.09,3.43-3.82,5.9-3.92.75-.03.64-1.18-.1-1.16Z"/>
  <path class="cls-6" d="m475.08,303.37c-.51-.92-.63-2.01-.48-3.04.09-.63-.84-.99-1.1-.35-.43,1.08-.79,2.18-1.16,3.29-.23.7.81,1.2,1.05.5.03-.08.06-.17.09-.25.07.28.32.4.57.37.03.06.05.11.08.17.37.65,1.31-.02.95-.67Z"/>
  <path class="cls-6" d="m340.66,116.83c.2-1.74-.52-3.57-1.59-5,0-.25-.02-.51-.02-.76.46-.23.3-1.1-.35-1.1-.3,0-.46.18-.5.4-.07.04-.14.07-.19.13-.3-.12-.7.07-.8.37-.17-.13-.35-.25-.54-.36-.64-.38-1.13.67-.5,1.05.66.39,1.16.92,1.54,1.53.07.23.14.47.21.7-.02,2.34-.2,4.65-.77,6.96-.18.73.96.93,1.14.21.25-1.03.42-2.07.55-3.11.08.64.12,1.28.09,1.94,0,.75,1.11.63,1.15-.09.34.09.79-.13.78-.59-.02-.77-.09-1.52-.21-2.27Z"/>
  <path class="cls-6" d="m346.66,114.31c-.4-.35-.72-.77-.98-1.22-.19-1.14-.52-2.24-.96-3.3-.07-.9-.02-1.8.11-2.61.12-.74-1.02-.95-1.14-.21-.04.22-.06.45-.08.67-.05-.07-.09-.15-.13-.22-.26-.41-.73-.27-.93.04-.01-.01-.02-.03-.03-.04-.17-.19-.39-.24-.59-.19-.44-.24-1.07.32-.74.86,1.15,1.9,2.13,3.85,2.38,6,.03.67.03,1.35.03,2.02,0,.63,1,.69,1.13.11.18,0,.35-.06.47-.2.33.05.73-.16.72-.6,0-.09-.01-.17-.01-.26.01.01.02.02.03.03.57.49,1.31-.4.75-.89Z"/>
  <path class="cls-6" d="m349.17,102.86c-.31-.25-.82-.1-.93.27-.41,0-.81.47-.49.9.33.46.63.93.91,1.41.51,2.08,1.16,4.12,1.49,6.23.08.51.78.68,1.05.31.03,0,.06-.02.08-.03.31.12.72-.04.79-.42.57-3.13-.39-6.62-2.9-8.67Z"/>
  <path class="cls-6" d="m356.25,103.08c-.58-1.85-1.36-3.57-3.02-4.86-.02-.01-.04-.02-.06-.03-.03-.02-.06-.03-.09-.05-.03-.01-.07-.02-.1-.03-.04,0-.07-.01-.11,0-.03,0-.07,0-.1.01-.03,0-.07.01-.1.03-.04.01-.07.03-.1.05-.03.01-.05.03-.07.05-.04.03-.07.06-.1.1-.01.02-.03.03-.04.05-.03.05-.05.1-.07.15,0,.01,0,.02-.01.03-.02.08-.02.17.02.26-.19.19-.27.5-.1.75,1.61,2.39,2.72,4.91,2.79,7.83.02.7,1.01.65,1.13.04.08-.06.14-.15.17-.27.33.36,1.09.11,1.01-.45-.19-1.31-.56-2.51-1.05-3.65Z"/>
  <path class="cls-6" d="m359.92,101.92c.16-2-.39-4.16-1.65-5.72-.09-.12-.19-.23-.29-.33-.36-.38-.74-.74-1.19-1.01-.23-.14-.45-.07-.61.08-.06-.03-.11-.06-.16-.08-.43-.18-1.02.23-.79.73,1.08,2.36,2.09,4.76,3.25,7.08.07.28.14.56.23.84.07.23.29.35.52.36.34.13.81-.21.8-.61,0-.3-.03-.78-.09-1.33Z"/>
  <path class="cls-6" d="m363.1,98.22c.11-3.02-1.12-6.02-3.3-8.12-.22-.22-.54-.16-.75.02-.04,0-.07,0-.11,0-.08-.04-.15-.08-.23-.11-.64-.26-1.06.5-.62.97.02.02.03.04.05.07.05.21.18.38.36.45.68.88,1.16,1.84,1.51,2.86.41,1.9.67,3.83,1.39,5.66.17.42.9.55,1.07.05.14-.43.25-.88.32-1.34.17-.1.3-.26.31-.5Z"/>
  <path class="cls-6" d="m362.45,85.08c-.13-.08-.28-.11-.43-.08-.12-.02-.23-.04-.36-.04-.5-.03-.75.49-.63.84-.04.19-.01.39.16.56.59.61,1.12,1.23,1.54,1.9.03.05.07.1.1.16.03.05.05.1.08.14.48,1.2.85,2.44.97,3.79.07.76,1.09.62,1.15-.07.04.05.07.11.11.17.27.36,1.02.31,1.04-.23.14-2.61-.92-6.38-3.73-7.12Zm1.49,2.96c-.13-.32-.27-.64-.41-.96.65.69,1.07,1.66,1.3,2.65-.16-.29-.32-.59-.47-.88-.12-.28-.26-.55-.42-.81Z"/>
  <path class="cls-6" d="m333.82,112.63c0,.53-.01,1.06-.04,1.59-.2-.69-.49-1.36-.94-1.97-.44-.6-1.39.07-.95.67,1.06,1.44,1.08,3.24,1.35,4.93.11.68.96.67,1.15.05.54-1.75.59-3.55.59-5.37,0-.75-1.15-.64-1.16.1Z"/>
  <path class="cls-6" d="m333.06,60.99c-4.85-1.5-9.52-1.92-14.5-.88-.72.15-.63,1.31.1,1.16,4.88-1.02,9.46-.6,14.19.86.71.22.91-.92.21-1.14Z"/>
  <path class="cls-6" d="m348.69,63.87c-.83-.63-1.67-1.22-2.52-1.78.1.01.2.03.31.04.44.03.8-.32.65-.77-1.68-4.89-7.6-5.34-11.46-7.71-.64-.39-1.13.66-.5,1.05,3.26,2.01,8.47,2.56,10.44,6.14-1.48-.31-2.88-.99-4.29-1.53-.08-.03-.15-.04-.22-.04-2.88-1.33-5.92-2.31-9.2-2.91-.74-.14-.94,1.01-.21,1.14,6.11,1.12,11.33,3.5,16.26,7.27.59.45,1.34-.43.75-.89Z"/>
  <path class="cls-6" d="m333.32,49.81c-2.54-1.93-5.62-2.43-8.67-3.03-.74-.14-.94,1-.21,1.14.42.08.84.16,1.26.24-.16-.03-.31-.05-.47-.08-.74-.12-.95,1.02-.21,1.14,2.63.44,5.25.9,7.83,1.59.56.15.93-.67.48-1.01Z"/>
  <path class="cls-6" d="m341.99,30.44c-.12.24-.25.47-.38.7.19-.64-.77-1.06-1.07-.41-1.28,2.77-2.19,5.67-3.19,8.55,0,.01,0,.02,0,.04-.19.42-.4.84-.57,1.27-.28.69.76,1.19,1.05.5,1.46-3.53,3.44-6.78,5.22-10.15.35-.66-.7-1.15-1.05-.5Z"/>
  <path class="cls-6" d="m347.68,55.86c1.63-4.09,4.63-7.36,7.17-10.89.43-.6-.45-1.35-.89-.75-.3.41-.6.82-.91,1.23-.09,0-.19.04-.29.12-3.02,2.56-6.2,4.91-9.28,7.39-.15.12-.21.28-.22.43-.33.18-.5.64-.11.92,1.49,1.06,2.84,2.27,4.2,3.48.56.5,1.3-.39.75-.89-.28-.25-.57-.48-.85-.73.17-.01.34-.1.42-.32Z"/>
  <path class="cls-6" d="m339.58,54.32c-1.97-.52-4.28-.49-5.96-1.76-.6-.45-1.35.44-.74.89,1.89,1.41,4.3,1.42,6.5,2.01.72.19.93-.95.21-1.14Z"/>
  <path class="cls-6" d="m336.37,51.11c-1.74-1.58-3.59-3.01-5.51-4.35-.61-.42-1.36.46-.74.89,1.92,1.34,3.77,2.77,5.51,4.35.55.5,1.3-.39.74-.89Z"/>
  <path class="cls-6" d="m337.69,60.16c-.15-.09-.29-.17-.44-.26.03-.22-.05-.46-.29-.61-1.37-.84-2.78-1.58-4.27-2.17-.82-.53-1.64-1.07-2.42-1.66-.6-.45-1.34.44-.74.89.42.32.86.61,1.29.91-.03.22.05.43.33.52.35.12.69.25,1.04.39,1.64,1.05,3.33,2.03,5,3.04.64.39,1.13-.67.5-1.05Z"/>
  <path class="cls-6" d="m337.09,63.29c-3.04-1.98-6.33-3.49-9.55-5.15-.67-.35-1.16.71-.5,1.05,3.13,1.62,6.34,3.07,9.3,4.99.62.4,1.37-.48.74-.89Z"/>
  <path class="cls-6" d="m358.27,40.65c-.66.38-1.3.78-1.94,1.19-.12.02-.24.08-.34.21-2.79,1.79-5.47,3.76-8.46,5.2-.67.32-.27,1.41.4,1.09,2.41-1.16,4.62-2.64,6.83-4.11-1.33,2.84-1.93,6.01-2.92,8.97-.24.7.81,1.2,1.05.5,1.2-3.59,1.77-7.61,3.92-10.8.7-.45,1.4-.88,2.12-1.3.65-.37-.03-1.32-.67-.95Z"/>
  <path class="cls-6" d="m340.98,34.93c-1.16,2.2-2.82,4.11-4.1,6.22.23-1.39.49-2.76.85-4.13.16-.59-.65-.89-1.01-.48-.31.36-.34.4-.52.85-.09.24-.02.46.11.61-.5,2.24-.81,4.52-1.17,6.78-.08.48.37.73.73.65.24,0,.48-.14.56-.44.91-3.65,3.88-6.31,5.61-9.57.35-.66-.7-1.15-1.05-.5Z"/>
  <path class="cls-6" d="m346.53,48.42c-.82.73-1.54,1.58-2.3,2.37-.45.47-.9.93-1.36,1.38-.28,0-.51.24-.56.52-.04.04-.08.08-.13.12-.23.19-.46.18-.18.25-.72-.2-.92.95-.21,1.14.23.06.49-.02.75-.16.73.73,1.2,1.68,1.66,2.6.13.26.38.35.61.33.02.1.06.19.08.29.02.12.08.21.15.29,0,.05.03.08.04.13-.37.49.23,1.28.76.83.5-.41.6-.94.51-1.51.02-.07.04-.14.02-.22-.25-1.66-1.1-3.03-2.21-4.24.08-.08.15-.16.21-.22.94-.95,1.84-2.07,2.82-2.93.55-.49-.11-1.44-.67-.95Z"/>
  <path class="cls-6" d="m300.06,299.83c-.5-1.98-2.04-4.63-4.09-6.94-.05-.34-.08-.68-.13-1.02-.1-.58-.84-.63-1.08-.26-2.68-2.61-5.96-4.46-8.92-3.76.07-.07.14-.13.2-.19.34-.34,0-1.05-.49-.95-.24.05-.46.12-.67.19.08-.15.17-.3.25-.46.19-.39-.11-.75-.46-.82-.16-.08-.36-.09-.56.03-.24.15-.46.31-.68.48.25-.44.5-.87.76-1.3.38-.61-.58-1.07-1-.55-.21-1.94-.84-3.77-2.1-5.33-.05-.11-.12-.2-.21-.25-.22-.25-.45-.5-.71-.74-.4-.37-.96.02-.95.49.24,9.5-1.65,18.61-4.67,27.49-.52,1.2-1.01,2.41-1.42,3.65-.67,1.37-1.41,2.71-2.28,4-.41.61.47,1.37.89.75.05-.08.1-.16.15-.25.11.37.63.6,1.01.25.22-.2.42-.42.62-.63.08-.04.14-.11.19-.2,1.75-1.96,2.84-4.34,3.69-6.84.19-.56.46-1.19.74-1.84,1.29-.11,2.59-.37,3.8-.75.44-.14.47-.7.17-.99-.63-.61-1.33-1.15-2.05-1.68,1.18-1.56,2.47-2.97,4.58-3.52.28-.07.48-.48.34-.75-.6-1.16-1.22-2.31-1.79-3.48-.2-.41-.35-.84-.48-1.27,0-.5.04-1,.13-1.52.02-.1.05-.19.07-.29,1.17-.46,3.81-.36,3.35-.41.62.07,1-.86.35-1.09-.05-.02-.1-.03-.14-.05h0s0,0,0,0c-.1-.03-.2-.06-.3-.09,2.7-.54,5.78,2,7.59,3.58.34.3.67.62.99.94.37,5.67-.81,11.24-1.23,16.9-.05.74,1.09.95,1.14.21,0-.12.02-.24.03-.36.31.11.69,0,.74-.42.62-4.81,1.12-9.87.75-14.77,1.27,1.55,2.29,3.32,2.77,5.2.19.72,1.27.31,1.09-.4Zm-18.01-15.02s-.01.02-.02.02c-.15-.06-.33-.06-.49,0v-2.83c.32.87.51,1.79.59,2.74-.03.02-.06.03-.09.05Z"/>
  <path class="cls-6" d="m265.06,325.17c-.57.58-.87,1.15-.91,1.97-.03.74,1.12.63,1.16-.1.02-.49.31-.8.64-1.12.53-.53-.36-1.27-.89-.75Z"/>
  <path class="cls-6" d="m321.4,430.71c-.88.05-1.76-.29-2.43-1.1-.02-.02-.04-.03-.07-.05-.43-.35-.8-.83-1.06-1.32,0,0,0,0,0,0-.44-.53-.73-1.17-.8-1.95-.48-1.48-.67-3.12-.68-4.76-.29-1.21-.45-2.45-.52-3.69-.01.03-.03.06-.04.1-.3,1.61-.77,3.18-1.02,4.8-.14.92-.07,1.85-.05,2.77-.06.63-.23,1.22-.67,1.7-.16.17-.35.3-.57.41-3.34-.16-6.8-.34-7.18-4.54-.07-.83-1.37-.72-1.29.11.05.53.14.99.27,1.43-.47-.16-1.07.21-.82.8.18.37.35.73.51,1.09-.26.04-.45.25-.54.52-.09.29-.16.57-.22.87-.06.31.16.74.52.76.11,0,.22.02.33.03.05.08.12.15.17.23-.25.14-.48.29-.71.46-.24-.04-.47-.1-.7-.21-.76-.37-1.31.81-.56,1.17.05.03.11.04.16.06-.07.09-.14.19-.21.28-.06.06-.12.11-.17.17-.03.03-.04.07-.06.11-.16.11-.31.21-.47.32-.68.49.07,1.55.75,1.06h0c.14.02.3-.01.43-.11.55-.39,1.1-.79,1.66-1.18.17-.07.33-.1.5-.15,1.56-.23,3.07-.1,4.59.21.03.03.06.06.1.09.8.31,1.56.79,2.13,1.42.46.51,1.04,1.34,1.14,2.04.05.33.07.61.08.87.05.02.1.05.16.06-.17,1.46-.31,2.93-.34,4.41,0,.33.19.51.44.55-.01.39-.02.78,0,1.18.01.44.37.6.71.55.01.07.03.14.04.21,0,.18.01.36,0,.54-.01.24.09.39.24.48.02.06.03.12.04.18.24.8,1.46.35,1.22-.45-.09-.28-.14-.57-.21-.86.01-1.28-.1-2.54-.23-3.81.1-1.49.4-2.98.84-4.35.93-1.78,2.65-2.85,4.67-3.4-.04-.01-.06-.03-.1-.05Z"/>
  <path class="cls-6" d="m366,462.74c-2.11-.38-4.09-1-5.68-2.51-.95-.9-1.75-1.92-2.82-2.62-.4-.76-.77-1.54-1.04-2.39-1.07-3.34-.03-6.9.2-10.28.25-3.61-.53-7.13-2.38-10.06,1.46-10.93,9.84-21.53,2.7-31.6-.91-.79-1.93-1.46-3.05-2.03-1.87-.4-3.79-.38-5.73-.12-4.25.93-8.73,2.96-12.54,3.55.65.31,1.31.6,1.98.82.01,0,.02,0,.03-.01,4.64.83,9.68.56,14.07,2.25,3.53,1.36,2.49,6.69,2.47,9.62,0,.06.02.1.04.15-.02.06-.04.11-.04.18v.25c-.99,4.59-3.31,8.76-7.52,11.18-.04.02-.06.05-.09.08-2.33-.58-4.86-.65-7.26-.59-3.75.61-7.48,1.4-11.24,1.89,1.64.07,3.26.32,4.92.76.01,0,.03,0,.04.01,1.15.31,2.3.69,3.5,1.19,3.24,1.34,6.74,3.36,8.1,6.67.14.19.3.35.42.54.22.33.41.69.59,1.05.04.08.08.16.12.24,1.38,3,1.54,6.91,1.62,10.02.11,4.05-.35,9.16-3.45,12.12-.61.58.39,1.41.99.83.24-.23.46-.47.67-.72.21.18.56.22.84.08.05-.03.08-.05.13-.08.1-.03.2-.08.28-.17.26-.15.53-.3.77-.46.24.41.93.48,1.14-.04.17-.4.31-.8.44-1.21.18-.16.36-.33.52-.5.16.13.38.13.58.06.01.05.02.09.03.14.25.8,1.47.34,1.22-.45-.11-.35-.18-.71-.23-1.07.61-1.11,1.17-2.24,1.61-3.41,0,.41.02.81.04,1.22-.09,1.4.17,2.6,1.01,3.86.25.38.91.34,1.11-.05.16.29.32.58.51.86.26.39.89.31,1.11-.05.22.34.45.68.67,1.03.28.43.77.32,1.02,0,.18.15.36.3.55.44.36.27.82.1.99-.21.54.24,1.25-.35.84-.9,1.44.98,3.3,1.44,4.96,1.74.82.15,1.06-1.13.23-1.28Z"/>
  <path class="cls-6" d="m368.76,392.03c-.43-.25-.85-.45-1.28-.6.02-.11.02-.22-.02-.34-.2-.73-.48-1.43-.81-2.11-.04-.09-.12-.16-.2-.22.14-.52.22-1.05.23-1.55.01-.39-.52-.73-.87-.55-.21.11-.39.24-.55.39-.06-.08-.13-.16-.24-.21-.26-.11-.52-.2-.77-.25-.02-.01-.05-.02-.08-.03-.07-.69-.26-1.36-.69-1.94-.24-.33-.76-.38-1.03-.04-.14.18-.24.35-.32.52,0-.05,0-.11,0-.16,0-.59-.62-.69-1-.42-.09-.89-.27-1.78-.66-2.67-.33-.76-1.55-.32-1.22.45,1.47,3.38-.02,6.88.61,10.38.08.43.44.69.87.55,2.58-.81,4.97-1.51,7.45-.02.72.43,1.27-.75.56-1.17Z"/>
  <path class="cls-6" d="m307.37,401.17c-.88-.64-1.65-1.39-2.11-2.4-.35-.75-1.57-.31-1.22.45.73,1.57,1.97,2.57,3.34,3.43-1.26.66-2.4,1.41-3.44,2.41-.47.45.15,1.29.72,1.03.22-.11.45-.2.68-.28-.05.44.33.87.77.75.09-.07.17-.14.26-.2.15-.09.3-.16.45-.24.47-.31.94-.6,1.45-.82.53-.05,1.05-.16,1.59-.29.05-.01.07-.05.11-.07.41-.03.82-.07,1.24-.1.11-.01.21-.06.3-.12-1.54-.9-2.94-2.18-4.13-3.55Z"/>
  <text class="cls-4" transform="translate(171.81 575.14)"><tspan x="0" y="0">J</tspan><tspan class="cls-9" x="40.83" y="0">A</tspan><tspan x="106.72" y="0">G</tspan><tspan class="cls-8" x="178.01" y="0">U</tspan><tspan x="245.66" y="0">AR</tspan></text>
  <text class="cls-1" transform="translate(196.95 622.8)"><tspan x="0" y="0">F I G H</tspan><tspan class="cls-10" x="124.33" y="0"> </tspan><tspan class="cls-11" x="132.32" y="0" xml:space="preserve">T   C L U B</tspan></text>
</svg>